<?xml version="1.0" encoding="utf-8"?>
<!-- Generator: Adobe Illustrator 26.0.1, SVG Export Plug-In . SVG Version: 6.00 Build 0)  -->
<svg version="1.1" id="Layer_1" xmlns="http://www.w3.org/2000/svg" xmlns:xlink="http://www.w3.org/1999/xlink" x="0px" y="0px"
	 viewBox="0 0 1000 800" style="enable-background:new 0 0 1000 800;" xml:space="preserve">
<style type="text/css">
	.st0{fill:#FA9377;}
	.st1{fill:#F8756E;}
	.st2{fill:#F8C83E;}
	.st3{fill:#4D50A2;}
	.st4{fill:#43BCA0;}
	.st5{fill:#FFFFFF;}
	.st6{fill:none;}
	.st7{fill:#122032;}
	.st8{fill:#F3F3F8;}
	.st9{fill:#7A80C9;}
	.st10{fill:#303C4C;}
	.st11{fill:#F9BFCA;}
	.st12{fill:#F76159;}
	.st13{fill:none;stroke:#122032;stroke-width:8.9099;stroke-linecap:round;stroke-miterlimit:10;stroke-dasharray:0,48.6457;}
	.st14{fill:#45A17B;}
</style>
<g>
	<g>
		<g>
			<path class="st0" d="M683.8,659c0-83.3,67.5-150.8,150.8-150.8S985.3,575.7,985.3,659H683.8z"/>
			<g>
				<path class="st1" d="M918.1,542.4c0.1,0.2,0.7-0.5,0.8-0.6C918.5,541.7,918,542.6,918.1,542.4z"/>
				<polygon class="st1" points="914,541.3 914.3,541.1 913.3,541.4 				"/>
				<path class="st1" d="M911.3,539c-0.7,1.3,1.1,0.6,1.3,1.4l-0.1,0.3l1-0.7C912.7,539.7,911.4,539.7,911.3,539z"/>
				<path class="st1" d="M911.8,535.3c-0.3,0.5-0.6,0.1,0.2,0.4c0-0.1,0-0.1,0-0.2C912,535.6,911.9,535.5,911.8,535.3z"/>
				<path class="st1" d="M912.1,535.6C912.4,535.8,912.2,535.1,912.1,535.6L912.1,535.6z"/>
				<path class="st1" d="M910.5,534.8l0.7-0.1c0.1-0.3-0.2-0.7,0.1-0.8C910.7,533.8,910.6,534.2,910.5,534.8z"/>
				<path class="st1" d="M909.5,535.3l0.3,0C909.8,535.2,909.8,535.1,909.5,535.3z"/>
				<path class="st1" d="M910.5,535.3l-0.7,0c-0.1,0.2-0.4,0.6,0.3,0C909.8,535.7,910.1,535.4,910.5,535.3z"/>
				<path class="st1" d="M910.6,535.7c0,0.4,0.2,0.8-0.5,0.9C911,537,911.5,536.1,910.6,535.7z"/>
				<path class="st1" d="M910.2,540.1l0,0.6l0.6-0.2C910.5,540.6,910.5,539.7,910.2,540.1z"/>
				<path class="st1" d="M908.4,532.3c-0.2,0.2-0.4,0.8-0.6,1.1l0.5-0.1C908.4,533,908.2,532.7,908.4,532.3z"/>
				<path class="st1" d="M907.9,533.4l-0.8,0.1C907.5,533.8,907.7,533.7,907.9,533.4z"/>
				<polygon class="st1" points="908.4,536.6 909.8,536.2 908.2,536.5 				"/>
				<polygon class="st1" points="906.7,531 907.4,530.6 906.3,531.2 				"/>
				<path class="st1" d="M905.5,530.3c0.5-0.4,0.3-1,0.7-1.2c-0.4-0.1-0.9,0.1-1.4,0.3C905.2,529.4,905.4,529.7,905.5,530.3z"/>
				<path class="st1" d="M904,529.7c0.2,0,0.5-0.2,0.8-0.3C904.6,529.5,904.3,529.5,904,529.7z"/>
				<path class="st1" d="M906.5,532.8c0.1-0.2,0.3-0.6,0.2-1l-0.3,0.8C906.3,532.7,906.4,532.8,906.5,532.8z"/>
				<path class="st1" d="M906.3,532.7L906.3,532.7c-0.2-0.2-0.3-0.3-0.3-0.3C906,532.4,906.1,532.5,906.3,532.7z"/>
				<path class="st1" d="M906.5,532.9L906.5,532.9C906.4,532.9,906.4,532.9,906.5,532.9z"/>
				<path class="st1" d="M907.7,535.1c-0.6,0.2-1.4,0.2-1.3,1.2C906.9,536,906.9,535.4,907.7,535.1z"/>
				<path class="st1" d="M906.1,533.9c0.1,0.2,0.2,0.3,0.3,0.5c0.1-0.2,0.2-0.5,0.5-0.6L906.1,533.9z"/>
				<polygon class="st1" points="905.7,534 906.1,533.9 905.9,533.7 				"/>
				<path class="st1" d="M904.4,531c-0.4,0.2-0.7,0-1-0.1c0.2,0.3,0.4,0.6,0.7,0.8C904.3,531.5,904.7,531.2,904.4,531z"/>
				<path class="st1" d="M905.3,531.9C905.2,531.9,905.2,531.9,905.3,531.9C905.2,532,905.2,532,905.3,531.9z"/>
				<path class="st1" d="M900.8,529.2c0,0.1,0,0.1,0,0.2L900.8,529.2L900.8,529.2z"/>
				<path class="st1" d="M904,531.9c0.1,0.3,0.4,0.2,0.6,0c-0.2,0-0.4-0.1-0.6-0.2C904,531.8,904,531.8,904,531.9z"/>
				<path class="st1" d="M903.1,529.6c0,0.2,0,0.4,0.1,0.6C903.2,529.9,903.2,529.4,903.1,529.6z"/>
				<path class="st1" d="M905.3,531.7C905.3,531.7,905.3,531.6,905.3,531.7C905.3,531.4,905.3,531.5,905.3,531.7z"/>
				<path class="st1" d="M905.3,531.7c-0.2,0-0.4,0.2-0.6,0.3c0.2,0,0.3,0,0.5,0C905.2,531.8,905.2,531.7,905.3,531.7z"/>
				<path class="st1" d="M897.1,533.5c0.5-0.7,1.4-1,1.4,0.1c0.8-0.2,1.9-2.7,2.3-4.2c-0.2,0.3-0.4,0.6-1.1,0.7
					c-0.1,0.5,0.5,1.6-0.3,1.9c-0.9,0-0.4-0.6-0.4-1.1c-0.3,1-1.6,0.7-2.2,2.1l0.8-0.1C897.4,533.1,897,533.3,897.1,533.5z"/>
				<path class="st1" d="M901.7,530l0.3,0c-0.2-0.3-0.1-0.6-0.1-1.4c-0.6,0.1-0.8,0.3-1,0.5l0.9,0.7L901.7,530z"/>
				<path class="st1" d="M902.8,530.7c-0.6,0.6-1.3,0.7-1.6,1.6c0.6,0.3,0.8-0.4,1.4-0.4C901.6,531.4,903.2,531.6,902.8,530.7
					c0.2,0.1,0.4,0.2,0.6,0.2c-0.1-0.2-0.2-0.4-0.3-0.7c0,0,0,0,0,0.1l0,0l0,0c0,0.1,0,0.2-0.1,0.1c0,0,0,0,0,0
					C903,530.5,902.9,530.6,902.8,530.7c-0.2-0.3,0.1-0.2,0.2-0.3l0.1-0.1l0,0c-0.4-0.1-0.8-0.1-1.2-0.2
					C902.1,530.3,902.3,530.5,902.8,530.7z"/>
				<path class="st1" d="M904.8,537.5c0-0.1,0.1-0.1,0.1-0.2C904.8,537.4,904.7,537.4,904.8,537.5z"/>
				<path class="st1" d="M904.8,536.8c0.1-0.1,0.4-0.3,0.6-0.1c0,0.3-0.3,0.3-0.4,0.6c0.3-0.1,0.8-0.2,0.7-0.8l-0.1,0.1
					c-0.2-0.5,0-1.8,0.2-1.8C905.2,535.4,905,536,904.8,536.8z"/>
				<path class="st1" d="M903.7,533.9l-1-0.2l-0.1,0.9l0.2-0.4C903.2,534.7,903.4,534.2,903.7,533.9z"/>
				<polygon class="st1" points="901,528.8 901.6,528.1 900.4,528.9 				"/>
				<polygon class="st1" points="899.9,528.2 900.4,527.6 899.8,527.8 				"/>
				<path class="st1" d="M834.6,519.1l-0.3,0.2C834.4,519.2,834.5,519.2,834.6,519.1z"/>
				<path class="st1" d="M836.4,519.2l0.1-0.4C836.4,519,836.3,519.2,836.4,519.2z"/>
				<path class="st1" d="M872.8,515.7c-0.1-0.9-0.2-2.1-0.4-1.2l-0.2,0.9C872.6,515.3,872.7,515.5,872.8,515.7z"/>
				<path class="st1" d="M852.2,516.1c0,0.1,0,0.2,0.1,0.3c0.1-0.3,0.3-0.6,0.4-0.8C852.5,515.7,852.3,515.9,852.2,516.1z"/>
				<path class="st1" d="M851.3,519.7l-0.4-0.6C851,519.3,851.1,519.5,851.3,519.7z"/>
				<path class="st1" d="M824.6,520.1l-0.2,0.9C824.8,521,824.6,520.6,824.6,520.1z"/>
				<path class="st1" d="M888.8,522.5c-0.2-0.5-0.3-0.7-0.5-0.9C888.5,522.3,888.4,523.1,888.8,522.5z"/>
				<path class="st1" d="M835.6,509.6c-0.2,0.2-0.2,0.3-0.3,0.5C835.6,510,835.7,509.8,835.6,509.6z"/>
				<path class="st1" d="M887.4,521.2c0,0.1,0.1,0.2,0.1,0.3c0.3,0,0.6,0,0.8,0.2C888.2,521.2,888,520.8,887.4,521.2z"/>
				<path class="st1" d="M789.3,526.9c0,0-0.1,0-0.1-0.1C789.2,526.9,789.2,526.9,789.3,526.9z"/>
				<path class="st1" d="M775.6,523.1c0.1-0.1,0.2-0.2,0.4-0.3C775.9,522.8,775.7,522.9,775.6,523.1z"/>
				<path class="st1" d="M895.9,525.4C896.1,525.5,896,525.3,895.9,525.4L895.9,525.4z"/>
				<path class="st1" d="M895.2,529.1c-0.1,0.1-0.2,0.2-0.3,0.3C895,529.2,895.1,529.1,895.2,529.1z"/>
				<path class="st1" d="M882.8,525.2L882.8,525.2C882.8,525.4,882.8,525.4,882.8,525.2z"/>
				<path class="st1" d="M896,525.9c0-0.1-0.1-0.3-0.2-0.4C895.9,525.6,895.9,525.8,896,525.9z"/>
				<path class="st1" d="M896.2,525.5c0.1,0.1,0.1,0.1,0.2,0.2C896.4,525.6,896.5,525.5,896.2,525.5z"/>
				<path class="st1" d="M895.5,525.3c0.1,0.1,0.2,0.2,0.3,0.3c0-0.1,0-0.1,0-0.2C895.8,525.4,895.7,525.3,895.5,525.3z"/>
				<path class="st1" d="M807.4,519.1C807.4,519.1,807.4,519.1,807.4,519.1C807.2,519.5,807.3,519.4,807.4,519.1z"/>
				<path class="st1" d="M864,522.7C864,522.7,864,522.7,864,522.7C864,522.7,864,522.7,864,522.7L864,522.7z"/>
				<path class="st1" d="M863,523.2c0.6-1,0.8-0.8,1-0.5l0.4-2.6L863,523.2z"/>
				<path class="st1" d="M830.2,519.3l0.6,0.8c-0.7,1.3-1.2,0.9-0.7,2c0.1-2.8,2.3-0.3,2.4-3.1l0.4,0.6c-0.1,0-0.1,0.1-0.2,0.1
					c0.7,1.3,0.6-2,1.6-1.6c0.3,0.2,0.6,0.6,0.3,1l0.8-0.7c0.2,0.1,0.2,0.5-0.1,0.5l1.2-0.2l0,0.1c0.2-0.4,0.6-1.1,0.8-1.4
					c0.3,0.4-0.2,0.3-0.1,0.6l0.7-0.7c0.2,0.7-0.4,1.4-0.8,1.3c0.5,2.8,0.6-0.7,1.8,1l-0.6,0.3c0.3,1.6,0.8,1.1,1.4,2.1
					c-0.1-0.5-1.2-2.6-0.5-3.2c0.2,0.2,0.4,0.3,0.9-0.2c-0.1,1,0.3,0.8,0.8,0.8l-0.1,1.3c0.5-0.3,0.5-1,0.9-1.6
					c0.6,0.2,0.6,1.2,0.6,2.1c0.9,0.3-0.5-1.7,0.6-1.8c0.7,0.6,1.3,0.1,2.2-0.6c0.5,0.5-0.2,0.8,0,1.2l0.6-1c0.1,0,0,0.4,0,0.5
					c0.4-0.4,0.2-1.3,0.8-1.6c0.4-1.4,1,2.3,2,0.7c0.1,0.4-0.2,0.8-0.2,1.3c1.2-0.9,1-0.6,2.1-2l0.6,1c-0.4-1.1,0.5-2.1,1.3-3
					c-0.1-0.5-0.2-0.9-0.3-1.2c0.4-0.2,0.7-0.4,1.1-0.5c0.1,0.2-0.1,0.7-0.3,1.2c0.1-0.1,0.2-0.2,0.2-0.3c0.3,0.5,0,1.3-0.4,1.9
					c-0.1-0.3-0.1-0.6-0.2-0.9c-0.4,0.7-0.7,1.6-0.8,2.4c0.1-0.1,0.2-0.3,0.4-0.3c-0.1,0.2-0.2,0.4-0.2,0.5c0,0.1,0.2-0.1,0.4-0.4
					l0,1.5l0.2-0.6l1.1,1.1c1.1-1.3,2.3-3.3,3.9-3.6c-0.6,1-0.4,1.7-0.7,3c-0.1-1.4-1.2,0.4-1.9-0.1c0.4,0.2,0.2,0.8,0,1l1.5-1
					c-0.2,1,0.1,0.8,0.4,1.3c0.2-2.1,1.3-1.1,1.9-1.6c-0.1,0.7-0.4,1.3-1,1c0.4,1.7,1.4-2.2,1.9-0.7c-0.2,0-0.2-0.1-0.4,0.2
					c0.5-0.5,1.3,0.2,0.9,0.7l-0.2,0c1,0.4,3.1,0.8,3.8-0.8c0,0.2-0.7,2-0.8,2.3c1.1-1.7,2.3-3.5,3.4-5.2c-0.6,1.4-0.9,5-2,5.6
					c0.2,0.3,0.4,0.6,1.1,0.2c-0.1-0.3,0.2-2.2,0.4-2.3c0.2,1.8,0.2,1,0.6,2.6c-0.2-0.4,0.8-2.6,1.2-2.4c-0.2,0.3-0.6,2.2-0.8,2.4
					l1.7-1.9c-0.4,0.3-0.6,1.9-0.6,2.6c0-0.5,0.8,0.3,1.2,0.2l-0.3-0.6c1,0.7,2.1-2.8,3.2-2.3c-0.3,0.4-1.3,2.7-0.8,3.1
					c0.6-1,3-5,4.3-5.5l0,0.7l1-0.5c-1.1,1.5-3.7,4.6-4.8,5.7c0.2,0.6-0.1,0.8,0.5,0.9c0,0.7-0.6,0.8-0.8,0.8l1.3,0.9
					c0.4-1.3,1.5-0.9,1.9-2c-0.7,0.2-1.4,0.5-2,0.8c0.4-1.3,2.2-3.4,3.2-2.8c0.1,0.6-1.1,2.2-1.2,2.7c0.3-0.4,1.3-0.5,1.2-0.1
					l-0.7,0.5c0.4,0.7,1.6-1.4,1.7,0.1c0.2,0.2,0,1.9,0.4,1.2c0.2-1.6,1.9-6.2,2.6-7.2c0,0.1,0.7,1.9,0.7,2.7
					c-0.1,1.3-1.7,2.5-1.8,3.6c0.2-0.3,0.5-0.7,0.7-0.8c0.1,0.4-0.5,1,0,1.1c0.6-1.3,1,0.6,0.7-1c0.7-0.1,0.4,0.5,1.1,0.7
					c0.2-0.9,1.8-2.6,2.5-2.7c-0.2,0.3-0.2,0.8-0.3,1c1,0.6,1.3,1.4,2.3,1.9c-0.1,0.4,0.2,0.9-0.2,1.4c0.2-0.2,0.6-0.5,0.9-0.4
					c0,1.4-0.7-0.1-0.9,1.4c0.4-0.7,1.3-0.7,1.9-0.9c0.4-1.2-0.9-0.7-1.5-0.4c0.7-1.6,2.3-2.9,3.7-3.1c1,0-0.2,1.2,0.1,1
					c1.4,1.1,2.7-2,3.4-0.2c0,1.2-1,2-1.3,2.7c-0.8,0-0.7-1.1-1.1-1.3l0.3,0.8c-0.4,0.2-0.9,0.2-1-0.2c-0.1,1.1,2.5,1.5,3.1,2.9
					c0.4-0.2,0.9-0.3,1-0.8l-0.4-0.1c0.1-1,1.3-0.7,1-1.3c0.8-0.3,1.8-0.8,2.3,0l-0.5,1.2c0.2-0.3-0.1-0.9-0.5-0.7
					c0.6-0.3,0.2,2.1,1.3,0.8l0-1c0.8-0.3,2.1-1.1,2.5-0.3c0.4-1.2-0.2,0,0.1-1.5c-0.6,1.8-1.6-1-1.9,1c0.4-1.7-0.4-1.1-0.3-2.7
					c-0.2,0.4-0.2,0.8-0.6,0.3c-0.1,0.1-0.2,0.2-0.3,0.3c0,0,0,0,0,0l0,0.1c-0.1,0-0.1,0.1,0,0c0,0.2,0,0.5,0,0.7
					c-0.7,0.7-1.5,0.2-2.1,0.5c-0.2-0.4,0.4-0.3,0.4-0.8l-0.8,0.4c0.4-0.8-0.1-1.8,0.9-1.9l-0.7-0.4c-0.1-0.7-0.6-1.1-1.1-1
					c-0.2-0.3-1.3,0.5-0.7,0l-1.3,0l0.1-0.2c-1-0.7-2.8,0.3-3.3-1.8c-0.5,0-0.9,0.1-1.4-0.4l0.2-0.8c-0.6,0-1.1-1.3-1.6-0.7
					c0.4-2.2-2.1-1.4-2.8-2.1l-0.4,1c-0.6-0.3-1.2-0.2-2.1-0.1l-0.3,0.9c-0.9,0.5-1.3-1.2-2.3-1.5c0.2-0.3,0.4-0.1,0.5,0.1
					c-0.4-2.4-3,0.6-3.5-1.2c-0.4,0.2-0.5,0.1-0.6-0.2c0,0,0.1,0,0.1,0c0,0-0.1,0-0.1,0c-0.1-0.2-0.1-0.4-0.2-0.6
					c0,0.3,0.1,0.5,0.2,0.6c-0.2-0.1-0.6-0.1-0.9,0.1l0.2-1c0,0,0,0-0.1,0c-0.2-0.4-0.4,0.4-0.5,1.1c-0.2,0.1-0.4,0.3-0.6,0.4
					c0.2-1.6-1,0.3-0.8-1.5c-0.5,0.7-1.7,0.1-2.4,1.8c0.1-0.2,0-0.4,0.2-0.3c-0.3-0.3-0.6-0.6-1-0.2l0.2-1.3l-1.2,1.4
					c-0.2-0.9-0.3-1.3,0.4-2.2c-1.5,1.2-1,0.3-2.3,1.5l0.3-0.8c-0.3-0.1-1.1,0.9-1.2,0.2c-0.4-1.7-3.6-1.1-5.2-2.9
					c-0.1,2.4-0.7-1.2-1.1,0.6c0-0.6-0.2-0.9,0.2-1.4c-1.1,0.4-1.3-1.2-2.3,0.3c0-0.6,0.4-0.8,0.3-1.1c-0.1,0.1-0.4,0.4-0.4,0.1
					c0-0.4,0.2-0.4,0.4-0.7c-1-0.1-1.4,1.6-1.8,3.2c-0.4-0.9-0.7-0.8-1.2,0.2c-0.1-0.6-0.3-1.2,0.4-1.3c-0.3-0.1-2-1.1-2.3,0.2
					c-0.1-0.3-0.5-0.2-0.6,0c-0.8-0.2-0.8-0.3-1.6-0.3l0.2,0.2c-0.5,1.5-0.7,0.3-1.3,0.4l0-0.2c-1.3-1.3-0.7,0.5-2-1l0,1
					c-0.4,2.1-1.1-1.4-2-0.7l0.2,0.6c-0.5,0.7-1-3-1.5-3.3c-0.1-0.2,0.2-0.3,0.3-0.4c-1.1-1.3-0.3,1.3-1.2,1.5
					c-0.1-0.7,0.3-1.8-0.3-1.9c-0.3-0.6-1.9,2.1-2.7,0.8c0.2,0.5,0.3,1.1-0.1,1.5c-0.6,0.2-1.6-2.1-2.3-0.4
					c-0.1-0.2-0.1-0.3-0.1-0.4c-0.5,0.4-1.6,0.7-1.9,1.6c-0.4-3.4-3,1.7-3-1.5l-1.5,0.2l0-0.3c-1-0.2-1.3,0.6-1.6,1.3
					c-0.2-0.2-0.1-0.5-0.1-0.7c-1.4-0.6-1.6-0.4-2.7,1.2l-0.2-1c-0.3,0.6-2.1-1.5-3.4-0.2c0-0.1,0-0.3,0.1-0.5
					c-0.7,0.7-1.7,0-2.6-0.3c-0.8-0.3-1.5-0.3-1.6,1.6l-0.9,1c1.3,0.1,0,1.6,0.6,2.2c-0.5,0.3-1.4-1-0.8-1.2l0.1,0.2
					c0-2-1.7-0.5-1.8-1.8c-2.5,0.5-5.2-0.2-7.6,0.2l0.6,1.4l-0.8,0.1c-0.3-0.3-0.5-1.1,0.1-1.2c-0.5-0.8-0.9,0.9-0.8,1.2
					c-1.3-0.4,0.1-1.8-0.3-1.8l-0.5,0.2l0.1,0.2c-0.3,0.7-0.2,1.3-0.9,1.4c-0.5-0.2-0.4-0.9-0.6-0.9c0-0.1-0.1-0.1-0.3,0l-1.1,0.1
					l0.7,1.1c-0.3,0.7-1,0.2-0.2,1.4c-0.6-0.9-1.6-0.9-2.5-0.7c-0.9,0.2-1.8,0.7-2.1,0.4c-0.4,1-1,1.2-1.8,1.3
					c0.3,0.2,0.7,1.4,0,1.5c-0.5-2.7-1.6-0.8-2.7-2.5c0.9,1.1-1.8,0.9-0.5,2.5c-0.6,0-0.4-1-1-1.5c-1,1.4-3.1,0.3-4.7,1.3
					c0.1,0.4,0.6,0.8,0.4,1.4l-1.5-1.4c-0.3,0.3,0.5,2.1-0.6,1.1c0.2,0.3,0.5,0.6,0.3,0.8c-1.9-0.2-3.4,0.8-4.9,1.6
					c-1.5,0.9-3.1,1.5-5.4,0.8c0.7,0.4,0.5,0.6,0.2,0.8c0.3,0,0.4,0.8,0.7,1.2l-1.9-0.6c0.4,1.3-1.3,0.8-0.8,2l0.3-0.4
					c0.2,1.6,2.3,2.6,3.2,4.4c-0.2-1.9,2.7,1.5,2.5-1.2c0.4,0.3,0.1,0.7,0.4,1c-0.1-0.9,0.1-1.2,0.8-1.1l0,0.2
					c1.4-0.9,2.4-0.5,4.3-0.7l-0.5-0.8c0.4,0,0.6,0.2,0.9,0.4c-0.2-1.5-1.1,0.3-1.3-1.3c1.3,1.6,2.6-1.1,3.8,0.9
					c0.6-0.2-0.6-1,0-1.2l0.4,0.5l-0.1-0.8c0.4,0,0.9,0.6,1.1,1.1c-0.1,0-0.2,0.2-0.3,0.3c0.7,0.5,1.3-0.7,1.5-0.6l-0.7-0.2
					c1.4-1.1,3.5-1.1,4.7-2.7l-0.3-0.4c0.9-1.2,1.1,0.2,2.3-0.6l0,0.1c0.1-0.5,0.4-0.9,0.8-0.9c-0.2,0.6,0.9,0.8,0.6,1.5
					c1-1.2,0.4-0.9,0.8-2.8l0.4,0.7c0.1-0.8,0-1.1,0.7-1.5c-0.4,0.8,0.7,1,0.3,2c1.8,1.2,1.7-2.2,2.9,0.1c0.2-2.2-1.5-0.9-1.2-1.4
					c-0.5-0.6,0.2-1.7,0.7-1.6c0.5-0.1,1.4,2.5,2.5,2.2c-0.1,0-0.1,0.2-0.2,0.2c0.5,0.4,0.7-0.9,1.4-0.2c0-1.3,0.7-0.1,0.4-1.7
					l-1,0.6c0.5-0.5,0.7-2.5,1.8-1.8c0,0.3-0.2,0.8-0.4,1.1c0.4,0.4,0.5-0.4,0.9,0c0.2,1.6-1.2,0.6-1.6,1.9c0.4,0.6,0.9-1.4,1,0.4
					c0-2.3,1.2,0.1,1.6-1.8l0.1,1c0.1-0.2,0.3-0.7,0.5-0.7l-0.2,1.3c0.4-1.2,1.3,0.7,1.8,0c-1.2,0.2-0.5-1.1-1.1-1.7
					c1.3-1.5,1.3,2.4,2.9,1.7c-0.2,0.2-1-0.4-0.7-1c0.4,0.1,0.8,0.5,1.1,0.9c1.1-0.4-0.3-1,0.1-1.6c0.6,1.1,0.5-0.6,0.9-1l0.1,1
					c1.4,0.5,0.1-2.1,1.4-1.5l-0.3,1.4l0.6-0.4l0,1.1c0.6-0.9,0.8-0.7,1.5-0.5c-0.2-0.7-0.1-1.8,0.5-1.9c0.5,0.5-0.1,1,0.7,0.7
					c-0.1,0.6-0.2,1.4-0.7,0.6c0,0.3-0.1,0.6-0.1,1c0.5,0.6,1.1,0,1.4,0c-0.1,0-0.3-0.1-0.3-0.2c0.3-0.5,0.7-1,1.1-1.5
					c0.2,0.4,0.1,0.7,0,1c0.2-0.1,0.4-0.6,0.7-0.7c0,0.8,0.1,1.6-0.4,2.1l1-1c0.1,0.3,0.6,0.9,0.5,1.2c0.6,0.4,1.4-1.7,2.3-1.1
					c0-0.2,0.1-0.3,0.3-0.4c0.8,0.2,1.5,1.1,2.4,0l0.6,1.4c0.7-0.4-0.8-1.8,0.4-2.4c0.9-0.5,0.3,1.2,0.7,1.6c0.4-0.7,1.1-2.2,1.9-1
					C830.6,519.4,830.4,519.2,830.2,519.3z M839.2,518.9c-0.2,0.2-0.6,0.8-0.7,0.2C838.8,518,838.9,518.6,839.2,518.9z M853.2,518.2
					c-0.2,0.3-0.4,0.1-0.5-0.3C852.8,517.9,853,517.9,853.2,518.2z M893,524.7C893,524.7,893,524.8,893,524.7
					C892.8,524.2,892.8,524.4,893,524.7z M893.6,525.5c0.1-0.1,0.2-0.2,0.2-0.3c-0.2,0.2-0.4,0.1-0.5,0
					C893.2,525.4,893.2,525.6,893.6,525.5z M803.4,513.1l0.2,0.2C803.3,513.7,803.4,513.4,803.4,513.1z"/>
				<path class="st1" d="M851.4,519.3c0-0.2,0-0.4,0-0.5C851.3,518.9,851.3,519.1,851.4,519.3z"/>
				<path class="st1" d="M824.7,520C824.6,520,824.6,520,824.7,520c0,0,0,0.1,0,0.2L824.7,520z"/>
				<path class="st1" d="M878.2,527.5c-0.1-0.2-0.1-0.4-0.1-0.6C878,527.1,878,527.4,878.2,527.5z"/>
				<path class="st1" d="M898.4,526.4l-0.6-0.1c0.3,0.1,0.2,0.3,0.3,0.5C898.2,526.6,898.3,526.3,898.4,526.4z"/>
				<path class="st1" d="M899.2,534.1c0.1-0.1,0.1,0.1,0.3,0l0.2-0.4C899.4,533.6,899,533.8,899.2,534.1z"/>
				<path class="st1" d="M897.2,529.4c-0.4,0.7,0.1,0.7,0.5,0.7c0,0,0,0-0.1,0C898.3,529.2,897.7,529.3,897.2,529.4z"/>
				<path class="st1" d="M897.7,530.2c0.1,0,0.2,0.1,0.3,0.2C898.3,530,898,530.2,897.7,530.2z"/>
				<path class="st1" d="M894.8,525.6c0.1,0.3,0.6-0.9,0.5-0.5C896.1,524.2,893.7,525.5,894.8,525.6z"/>
				<polygon class="st1" points="896,532 896.4,531 895.8,531.6 				"/>
				<path class="st1" d="M893.8,529.8l0.4,0.6c0.1-0.2,0.2-0.2,0.3-0.2C894.2,529.9,894,529.5,893.8,529.8z"/>
				<path class="st1" d="M894.5,530.1c0.2,0.1,0.3,0.2,0.5,0.1C894.9,530.2,894.7,530.1,894.5,530.1z"/>
				<polygon class="st1" points="895.2,531.8 895.1,531.5 894.8,531.3 				"/>
				<path class="st1" d="M888.2,526.6l-0.7,0c-0.2,0.3-0.2,0.6,0.1,0.5C887.9,526.9,888.1,526.9,888.2,526.6z"/>
				<path class="st1" d="M888.7,530c-0.1-0.3,0-0.5,0.1-0.8l-0.6,1.1L888.7,530z"/>
				<path class="st1" d="M886.9,529.4c-0.2,0.3-1.3,0.5-0.5,0.8C886.6,529.9,887.3,529.9,886.9,529.4z"/>
				<polygon class="st1" points="878.6,523.9 878.8,523.9 879.6,522 				"/>
				<path class="st1" d="M868.9,525.7c0.5,0.7,0.6-1.2,1-0.4c0.3-0.4-0.4-0.7-0.1-1C869.3,524.7,869.2,524.3,868.9,525.7z"/>
				<path class="st1" d="M869.9,524.3c0.1-0.1,0.2-0.1,0.3-0.2C870.1,524.2,870,524.3,869.9,524.3z"/>
				<polygon class="st1" points="773.4,523 772.7,522.8 773.3,523.3 				"/>
				<path class="st1" d="M773.2,524.8l-0.7-1.1l0.3,1.2C772.9,524.8,773,524.6,773.2,524.8z"/>
				<path class="st1" d="M840.3,521.7l0.1-0.3c0-0.4-0.2-0.4-0.4-0.5L840.3,521.7z"/>
				<polygon class="st1" points="833.9,520.4 834.1,520.4 833.9,519.2 				"/>
				<path class="st1" d="M828.6,521.9c0.2,0,0.5-0.2,0.7-0.2C828.8,521.9,828.5,520.4,828.6,521.9z"/>
			</g>
			<path class="st2" d="M838.3,503.5l-60.7-60.7c-0.6-0.6-0.6-1.5,0-2.1l60.7-60.7c0.6-0.6,1.5-0.6,2.1,0l60.7,60.7
				c0.6,0.6,0.6,1.5,0,2.1l-60.7,60.7C839.8,504.1,838.8,504.1,838.3,503.5z"/>
		</g>
		<g>
			<polygon class="st3" points="375.2,653.7 826,653.7 734,226.5 283.2,226.5 			"/>
			<path class="st3" d="M826,664.5H375.2c-5.1,0-9.5-3.6-10.6-8.5l-92-427.2c-0.7-3.2,0.1-6.5,2.2-9.1c2.1-2.5,5.1-4,8.4-4H734
				c5.1,0,9.5,3.6,10.6,8.5l92,427.2c0.7,3.2-0.1,6.5-2.2,9.1C832.3,663,829.2,664.5,826,664.5z M383.9,642.9h428.6l-87.3-405.6
				H296.6L383.9,642.9z"/>
		</g>
		<g>
			<circle class="st4" cx="264.3" cy="450.7" r="199.3"/>
			<g>
				<path class="st4" d="M281.7,631.9c104.4-14.9,158.4-81.8,163.4-201.1"/>
			</g>
		</g>
		<polygon class="st5" points="630.3,653.7 179.5,653.7 271.5,230.4 722.3,230.4 		"/>
		<rect x="277.5" y="222.1" class="st6" width="477" height="22.6"/>
		<g>
			<ellipse class="st0" cx="326.9" cy="274.2" rx="14.9" ry="14.4"/>
			<path class="st7" d="M327,276.2c-1.7,0-3.2-1.1-3.8-2.8c-6.6-21.4-3.1-47.5,8.6-64.9c7.4-11,17.4-17.4,28.7-18.4
				c15.6-1.3,29.2,8.3,34.7,24.6c0.7,2.1-0.4,4.3-2.5,5c-2.1,0.7-4.3-0.4-5-2.5c-3.4-10.1-12.2-20.5-26.6-19.3
				c-11.2,1-18.6,8.6-22.9,14.9c-10.3,15.3-13.5,39.3-7.6,58.2c0.6,2.1-0.5,4.3-2.6,4.9C327.8,276.1,327.4,276.2,327,276.2z"/>
			<g>
				<ellipse class="st0" cx="404" cy="274.2" rx="14.9" ry="14.4"/>
				<path class="st7" d="M404.1,276.2c-1.7,0-3.2-1.1-3.8-2.8c-6.6-21.4-3.1-47.5,8.6-64.9c7.4-11,17.4-17.4,28.7-18.4
					c12.1-1,27.4,4.6,34.4,23.6c0.7,2-0.3,4.3-2.3,5c-2,0.7-4.3-0.3-5-2.3c-3.6-9.7-12.3-19.7-26.3-18.5c-11.2,1-18.6,8.6-22.9,14.9
					c-10.3,15.3-13.5,39.3-7.6,58.2c0.6,2.1-0.5,4.3-2.6,4.9C404.9,276.1,404.5,276.2,404.1,276.2z"/>
			</g>
		</g>
		<g>
			<ellipse class="st0" cx="566.8" cy="268.6" rx="14.9" ry="14.4"/>
			<path class="st7" d="M566.9,270.6c-1.7,0-3.2-1.1-3.8-2.8c-6.6-21.4-3.1-47.5,8.6-64.9c7.4-11,17.4-17.4,28.7-18.4
				c20.3-1.7,33.7,14.5,36.4,31.5c0.3,2.1-1.1,4.2-3.3,4.5c-2.1,0.3-4.2-1.1-4.5-3.3c-3-18.5-16.6-25.9-28-24.9
				c-11.2,1-18.6,8.6-22.9,14.9c-10.3,15.3-13.5,39.3-7.6,58.2c0.6,2.1-0.5,4.3-2.6,4.9C567.7,270.6,567.3,270.6,566.9,270.6z"/>
			<g>
				<ellipse class="st0" cx="643.8" cy="268.6" rx="14.9" ry="14.4"/>
				<path class="st7" d="M644,270.6c-1.7,0-3.2-1.1-3.8-2.8c-6.6-21.4-3.1-47.5,8.6-64.9c7.4-11,17.4-17.4,28.7-18.4
					c9.4-0.8,18,2.2,24.8,8.7c5.9,5.6,10,13.4,11.5,22c0.4,2.1-1,4.2-3.2,4.6c-2.1,0.4-4.2-1-4.6-3.2c-2.3-12.6-12-25.6-27.9-24.3
					c-11.2,1-18.6,8.6-22.9,14.9c-10.3,15.3-13.5,39.3-7.6,58.2c0.6,2.1-0.5,4.3-2.6,4.9C644.7,270.6,644.4,270.6,644,270.6z"/>
			</g>
		</g>
		<g>
			
				<rect x="196.3" y="478.7" transform="matrix(0.1872 -0.9823 0.9823 0.1872 -206.5914 719.0605)" class="st8" width="269.8" height="11.2"/>
			
				<rect x="314.9" y="478.7" transform="matrix(0.1872 -0.9823 0.9823 0.1872 -110.1443 835.6173)" class="st8" width="269.8" height="11.2"/>
			
				<rect x="433.6" y="478.7" transform="matrix(0.1872 -0.9823 0.9823 0.1872 -13.6968 952.1746)" class="st8" width="269.8" height="11.2"/>
			<rect x="255.5" y="424.5" class="st8" width="406.5" height="11.2"/>
			<rect x="230.2" y="533" class="st8" width="406.5" height="11.2"/>
		</g>
		<g>
			<g>
				<path class="st9" d="M533.7,531.1c0.6,0,0.1-1.1,0.1-1.4C533,530.2,533.8,531.4,533.7,531.1z"/>
				<polygon class="st9" points="525,535.4 525.1,534.9 523.8,536.2 				"/>
				<path class="st9" d="M516.1,535.9c0.9,2,3.2-0.4,4.8,0.2l0.3,0.4l0.6-1.7c-0.9,0.2-2,0.6-3,0.9
					C517.8,536,516.8,536.2,516.1,535.9z"/>
				<path class="st9" d="M511.5,531.5c0.3,0.8-1,0.7,1,0.3c-0.1-0.1-0.1-0.1-0.2-0.2C512.2,531.6,512,531.5,511.5,531.5z"/>
				<path class="st9" d="M512.4,531.5C513.3,531.5,511.8,530.9,512.4,531.5L512.4,531.5z"/>
				<path class="st9" d="M508.3,531.8l1.2-0.6c-0.2-0.5-1.2-0.6-0.8-1C507.4,530.5,507.6,531,508.3,531.8z"/>
				<path class="st9" d="M507,533.2l0.6-0.3C507.6,532.7,507.4,532.6,507,533.2z"/>
				<path class="st9" d="M509,532.4l-1.4,0.5c0.1,0.3,0.1,1,0.6-0.2C508.1,533.3,508.4,532.8,509,532.4z"/>
				<path class="st9" d="M509.7,532.7c0.6,0.5,1.5,0.8,0.3,1.4c1.2-0.1,1.7-0.5,1.6-0.8C511.5,533,510.9,532.7,509.7,532.7z"/>
				<path class="st9" d="M515.7,538c0.3,0.2,0.6,0.4,1,0.6l0.8-0.7C517,538.2,515.6,537.4,515.7,538z"/>
				<path class="st9" d="M501.1,529.9c-0.1,0.4,0.2,1.2,0.2,1.8l0.9-0.3C501.9,531,501.1,530.5,501.1,529.9z"/>
				<path class="st9" d="M501.3,531.7l-1.4,0.5C501.1,532.5,501.3,532.2,501.3,531.7z"/>
				<path class="st9" d="M506.6,535.4l2.3-1.4c-0.9,0.5-1.8,1-2.8,1.4C506.3,535.4,506.5,535.4,506.6,535.4z"/>
				<polygon class="st9" points="496.3,529 497.2,528.1 495.6,529.3 				"/>
				<path class="st9" d="M493,528.4c0.7-0.7-0.4-1.6,0.3-1.9c-0.9-0.1-1.8,0.4-2.6,0.8C491.5,527.2,492.2,527.5,493,528.4z"/>
				<path class="st9" d="M489.4,527.9c0.4-0.1,0.9-0.3,1.4-0.6C490.3,527.4,489.9,527.6,489.4,527.9z"/>
				<path class="st9" d="M497.7,531.6c-0.1-0.3-0.1-1-0.8-1.4l0.3,1.3C497.4,531.5,497.5,531.6,497.7,531.6z"/>
				<path class="st9" d="M497.2,531.5L497.2,531.5c-0.6-0.2-0.9-0.3-1.1-0.4C496.3,531.2,496.6,531.3,497.2,531.5z"/>
				<path class="st9" d="M497.8,531.6c0,0-0.1,0-0.1,0C497.7,531.7,497.8,531.8,497.8,531.6z"/>
				<path class="st9" d="M503.2,533.9c-0.9,0.6-2.6,1.1-1.2,2.3C502.7,535.5,501.9,534.8,503.2,533.9z"/>
				<path class="st9" d="M498.2,533.2l1.4,0.5c0-0.3-0.2-0.8,0.3-1.1L498.2,533.2z"/>
				<polygon class="st9" points="497.4,533.5 498.2,533.2 497.7,533 				"/>
				<path class="st9" d="M491.4,529.6c-0.7,0.4-1.4,0.2-2.1,0.1c0.7,0.4,1.5,0.8,2.3,1C491.7,530.4,492.2,529.8,491.4,529.6z"/>
				<path class="st9" d="M494.2,530.7c0,0-0.1,0-0.1,0C494.1,530.9,494.1,530.9,494.2,530.7z"/>
				<path class="st9" d="M482.2,527.3c0,0.1,0,0.2,0,0.2c0-0.1,0.1-0.1,0.1-0.2L482.2,527.3z"/>
				<path class="st9" d="M491.6,531c0.5,0.4,1,0.2,1.4-0.1c-0.5,0-1-0.1-1.5-0.2C491.4,530.9,491.3,531,491.6,531z"/>
				<path class="st9" d="M487.3,527.8c0.2,0.3,0.5,0.7,0.8,1C487.9,528.3,487.5,527.6,487.3,527.8z"/>
				<path class="st9" d="M493.9,530.4c0,0,0.1,0,0.1,0C493.9,530,493.9,530.2,493.9,530.4z"/>
				<path class="st9" d="M493.9,530.4c-0.3,0.1-0.7,0.3-1,0.5c0.4,0,0.7-0.1,1.1-0.2C494,530.6,493.9,530.5,493.9,530.4z"/>
				<path class="st9" d="M477.2,533.7c0.5-1,2.5-1.3,3.5,0.3c1.7-0.3,2-4.1,1.6-6.4c-0.2,0.4-0.4,0.9-1.9,1c0.2,0.7,2.4,2.5,1,3
					c-2-0.2-1.3-0.9-2-1.8c0.1,0.8-0.7,1.1-1.5,1.3c-0.8,0.3-1.8,0.6-2,1.6c0.6,0,1.2,0.1,1.9,0C477.6,533,476.8,533.3,477.2,533.7z
					"/>
				<path class="st9" d="M484.7,528.6l0.6,0c-0.6-0.4-0.9-0.9-1.3-2.1c-1.1,0.2-1.4,0.5-1.6,0.8c0.9,0.4,1.7,0.8,2.6,1.1
					L484.7,528.6z"/>
				<path class="st9" d="M487.7,529.5c-0.8,1-2.3,1.1-1.9,2.6c1.7,0.5,1.5-0.6,2.6-0.8c-2.7-0.5,0.9-0.4-0.7-1.7
					c0.6,0,1,0.1,1.5,0.1c-0.4-0.3-0.8-0.6-1.2-0.9c0,0,0,0.1,0,0.1l0,0l0,0c0.1,0.2,0.1,0.3,0,0.2c0,0,0,0-0.1,0
					C487.9,529.2,487.8,529.4,487.7,529.5c-0.7-0.5,0-0.3,0.3-0.4c0-0.1,0.1-0.1,0.1-0.2c0,0,0,0,0,0l-2.8-0.2
					C485.8,529,486.5,529.2,487.7,529.5z"/>
				<path class="st9" d="M500.1,538.6c-0.1-0.1-0.1-0.2,0-0.3C499.9,538.4,499.8,538.5,500.1,538.6z"/>
				<path class="st9" d="M499.1,537.7c0.2-0.1,0.5-0.6,1.1-0.4c0.5,0.5-0.1,0.6-0.1,1c0.5-0.3,1.5-0.6,0.4-1.4l-0.2,0.1
					c-1.1-0.6-2.3-2.3-2-2.5C498.3,535.7,498.5,536.5,499.1,537.7z"/>
				<path class="st9" d="M493,534.1c-0.8,0-1.6,0-2.4,0l0.9,1.3l0.1-0.6C492.8,535.3,492.8,534.5,493,534.1z"/>
				<polygon class="st9" points="482.2,526.7 482.9,525.6 481.1,526.8 				"/>
				<polygon class="st9" points="479.4,525.7 480,524.8 479,525.1 				"/>
				<path class="st9" d="M523.4,427.3c0.3,0,0.6-0.1,0.8-0.1C523.8,427.2,523.6,427.2,523.4,427.3z"/>
				<path class="st9" d="M518,426l-0.2,0.5C518,426.2,518.2,426,518,426z"/>
				<path class="st9" d="M446.7,474.3c1.2-0.6,3-1.1,1.8-1.3l-1.2-0.1C447.3,473.5,447.1,473.9,446.7,474.3z"/>
				<path class="st9" d="M474.7,435.1c-0.1-0.1-0.3-0.2-0.4-0.2c-0.1,0.5-0.2,0.9-0.2,1.3C474.3,435.9,474.5,435.5,474.7,435.1z"/>
				<path class="st9" d="M473.7,430.1l1.6,0.3C475,430.2,474.4,430.1,473.7,430.1z"/>
				<path class="st9" d="M551.7,438.6l1.5-0.5C552,437.3,552.1,438.1,551.7,438.6z"/>
				<path class="st9" d="M454.7,510c-0.2-0.9-0.4-1.5-0.7-1.9C454,509.2,453.7,510.5,454.7,510z"/>
				<path class="st9" d="M518.2,439.5c0.4-0.1,0.7-0.3,0.7-0.6C518.4,439,518.2,439.1,518.2,439.5z"/>
				<path class="st9" d="M452.5,506.4c0,0.2,0,0.3,0,0.5c0.5,0.3,1,0.6,1.4,1.2C453.9,507.2,453.7,506.4,452.5,506.4z"/>
				<path class="st9" d="M550,531c-0.1,0-0.2,0-0.3,0C549.8,531.2,549.9,531.1,550,531z"/>
				<path class="st9" d="M518.1,535.5c0.2-0.2,0.6-0.3,1-0.5C518.9,535,518.6,535.1,518.1,535.5z"/>
				<path class="st9" d="M469.3,520C469.8,520.2,469.4,519.9,469.3,520L469.3,520z"/>
				<path class="st9" d="M469.5,525.7c-0.2,0.1-0.4,0.2-0.5,0.4C469.2,525.9,469.3,525.8,469.5,525.7z"/>
				<path class="st9" d="M442.9,505.4C442.9,505.4,442.9,505.4,442.9,505.4C442.7,505.7,442.8,505.6,442.9,505.4z"/>
				<path class="st9" d="M469.8,520.9c-0.1-0.2-0.3-0.5-0.5-0.7C469.3,520.3,469.5,520.6,469.8,520.9z"/>
				<path class="st9" d="M470,520.3c0.2,0.2,0.3,0.3,0.4,0.4C470.5,520.6,470.5,520.4,470,520.3z"/>
				<path class="st9" d="M468.5,519.6c0.3,0.2,0.6,0.4,0.8,0.6c-0.1-0.1-0.1-0.2,0-0.2C469.1,519.9,468.9,519.8,468.5,519.6z"/>
				<path class="st9" d="M579.8,481.5c0,0.1-0.1,0.1-0.1,0.2C580.1,482.5,580.1,482.1,579.8,481.5z"/>
				<path class="st9" d="M442.1,453.5c0,0,0,0.1,0,0.1C442.2,453.6,442.2,453.5,442.1,453.5L442.1,453.5z"/>
				<path class="st9" d="M442.9,450.7c0.3,0.9,0.3,1.5,0.1,1.9c-0.1,0.4-0.4,0.6-0.8,0.9c1.1,0.4,2.3,0.8,3.4,1.3
					C444.7,453.5,443.8,452.1,442.9,450.7z"/>
				<path class="st9" d="M536.1,431.3l-1.3-1.7c2.8-0.8,4.1,0.4,3-1.7c-0.9,1.7-2.6,1.1-4.3,0.5c-1.7-0.5-3.5-1-4.2,0.7l-0.9-1.2
					c0.3,0.1,0.4,0,0.8,0.1c-1.7-2.5-2.5,2.1-5.2,0.7c-0.9-0.6-1.5-1.3-0.7-1.5l-2.5,0.4c-0.6-0.2-0.3-0.8,0.3-0.6l-1.8-0.3
					l-1.8-0.2l0-0.1c-0.6,0.5-1.9,1.2-2.5,1.5c-0.8-0.7,0.5-0.3,0.4-0.8c-0.7,0.2-1.4,0.4-2.1,0.6c-0.6-1.1,1.1-1.9,2.4-1.4
					c-0.6-2.1-1-1.9-1.8-1.6c-0.8,0.3-1.8,0.8-3.6-0.6l1.9-0.2c-0.5-1.2-1.1-1.6-1.9-2c-0.8-0.3-1.7-0.5-2.7-1.3
					c0.5,0.8,4,3.8,1.7,4.6c-0.6-0.3-1.4-0.6-2.6,0.1c0.1-1.4-1.1-1.2-2.5-1.1l0.2-1.8c-1.6,0.5-1.5,1.4-2.4,2.2
					c-1.7-0.2-2.1-1.6-2.5-2.8c-2.8-0.3,1.9,2.2-1.3,2.6c-1.1-0.4-2.1-0.3-3.1,0c-1,0.3-2.1,0.8-3.3,1.5c-1.6-0.4,0.2-1.1-0.5-1.6
					l-1.2,1.6c-0.3,0-0.3-0.4-0.3-0.7c-1.1,0.7,0.1,1.8-1.6,2.5c-0.1,1-1.1,0.5-2.4,0c-0.6-0.2-1.3-0.5-2-0.5c-0.6,0-1.2,0.3-1.7,1
					c-0.7-0.4,0-1.1-0.3-1.8c-1.4,1.1-2,1.5-2.5,2c-0.5,0.5-0.9,1-1.8,2.4c-0.8-0.2-1.6-0.4-2.4-0.5c1,0.4,1.1,1.1,0.8,2
					c-0.3,0.9-0.9,1.9-1.5,2.8c0.7,0.4,1.3,0.8,1.7,1l-2.1,1.8c-0.4-0.2-0.4-0.8-0.2-1.7c-0.1,0.2-0.2,0.4-0.3,0.6
					c-1.1-0.3-1.1-1.4-0.8-2.6c0.4,0.2,0.9,0.5,1.3,0.7c0.2-1.3,0.5-2.6,0-3.6c-0.1,0.3-0.4,0.6-0.7,0.8c0.1-0.3,0.1-0.6-0.1-0.8
					c-0.2-0.1-0.3,0.3-0.6,0.9l-1.3-1.7l0.1,0.8c-1.3,0.1-2.7,0.2-4,0.3c-1.7,3-2.3,6.7-5.3,9.5c0.1-1.8-1.1-2.2-2-3.7
					c1,0.5,1.6-0.1,2.2-0.9c0.3-0.4,0.6-0.9,1-1.3c0.4-0.4,0.8-0.7,1.4-0.9c-1.1,0.4-1.3-0.5-1.2-0.9c-1,1.1-1.8,2.3-2.7,3.5
					c-0.7-1.3-1.3-0.5-2.5-0.4c2.2,1.9-1.4,3.3-2.2,4.9c-0.7-0.7-1-1.7,0.8-2.7c-1.5-0.2-1.7,0.8-1.6,2c0,1.1,0,2.3-1.4,2.2
					c0.4-0.3,0.6-0.4,0.5-0.9c-0.2,0.7-0.9,1.3-1.6,1.7c-0.6,0.4-1.3,0.5-1.3-0.1l0.3-0.3c-1.3,1-3.1,2.6-4.3,4.5
					c-1.2,1.8-1.7,3.6-0.9,4.5c-0.3-0.2-2.1-2.1-2.3-2.6c0.5,1.6,1,3.2,1.5,4.7c0.6,1.5,1.3,3,2,4.5c-0.8-0.7-2.4-1.4-3.8-2.2
					c-1.4-0.8-2.6-1.7-2.4-3.2c-0.7,0.5-1.5,1.2-1.7,2.9c0.5-0.3,3.3,0.4,3.1,1.1c-1.5,0.2-1.9,0.4-2.3,0.6
					c-0.4,0.2-0.8,0.5-2.3,1.2c0.8-0.5,3.2,1.7,2.6,2.7c-0.4-0.4-2.9-1.3-3.1-1.8c0.5,1.4,1.1,2.8,1.7,4.1c-0.2-0.9-2.4-1.2-3.6-0.9
					c0.4,0,0,0.6-0.3,1.3c-0.3,0.8-0.7,1.7-0.7,2.1l1.1-1c-0.8,1.6,0,2.8,0.8,3.9c0.9,1.1,1.9,2.2,1.4,3.8c-0.5-0.5-3.7-1.9-4.5-0.3
					c0.7,0.6,2.5,1.9,4.2,3.3c0.9,0.7,1.7,1.4,2.4,2.1c0.7,0.7,1.3,1.4,1.5,2.1l-1,0.4c0.3,0.7,0.5,1.4,0.9,2.1
					c-1.3-0.7-3-2-4.7-3.6c-1.8-1.6-3.2-3.4-4-4.7c-1,1.2-1.2,0.2-1.4,2.2c-1,0.6-1.1-1.3-1.1-1.9c-0.2,0.8-0.5,1.6-0.7,2.4
					l-0.5,2.4c1,0,1.4,0.9,1.7,1.9c0.4,0.9,0.8,1.9,1.6,1.8l-0.5-1.3c-0.1-0.4-0.3-0.9-0.4-1.3l-0.7-2.7c1,0,2.2,0.9,3.2,2.1
					c0.5,0.6,0.9,1.3,1.1,2c0.3,0.7,0.5,1.5,0.4,2.3c-0.8,0.8-3.4-0.6-4-0.6c0.7,0.5,1.2,3.1,0.8,3.4c-0.4-0.4-0.8-0.9-1.1-1.4
					c-0.4,0.9,0.4,1.7,0.9,2.5c0.6,0.8,1,1.5,0.2,2.8c0,0.7-2.1,2.7-0.9,2.6c1.9-1.7,8.6-2.7,10.3-2.3c-0.1,0.1-0.5,1-0.9,2
					c-0.4,1-0.9,2.2-1.3,2.7c-0.7,0.8-1.8,0.6-2.8,0.4c-1.1-0.2-2.1-0.5-2.7,0.2c0.5-0.1,1.3,0.4,1.6,0.6c-0.2,0.9-1.6,0.1-1,1.7
					c1.8-0.3,1,3.4,1.8,0.3c1.1,1.4,0.2,1.8,1,3.6c0.5-0.5,1.6-0.5,2.8-0.3c1.2,0.2,2.4,0.7,3,1.2c-0.5,0.1-0.9,0.7-1.1,1
					c0.3,0.7,0.6,1.4,0.9,2c0.3,0.6,0.5,1.2,0.7,1.8c0.4,1.2,1,2.2,1.9,3.4c-0.2,0.5,0.3,2-0.7,2.1c0.6,0.1,1.3,0,2,0.7
					c0,2.5-1.6-1.4-2.2,1c0.9-0.6,2.8,0.8,4.3,1.2c0.9-1.5-1.9-2.4-3.3-3c1.8-1.5,5.1-1.5,8-0.4c2.1,1.1-0.3,1.8,0.2,1.8
					c1.5,1.6,2.9,1.4,4.1,1.2c1.2-0.2,2.2-0.3,3.1,1.4c0.3,2.1-1.7,2.5-2.1,3.6c-2-0.7-1.9-2.6-2.9-3.3l0.8,1.6
					c-0.8,0-2.1-0.5-2.4-1.3c0.1,0.9,1.5,2.2,3.3,3.5c1.8,1.3,3.9,2.7,5,4.2c0.8-0.1,2,0,1.9-0.8l-1.1-0.4c-0.2-1.6,2.7-0.4,1.8-1.6
					c0.9,0,1.8-0.1,2.7,0c0.9,0.1,1.7,0.4,2.5,1.2L471,527c0.2-0.5-0.7-1.5-1.5-1.3c1.1-0.3,1.7,3.5,3.6,1.9l-0.7-1.7
					c0.8-0.1,1.9-0.3,2.8-0.4c1-0.1,1.9-0.1,2.6,0.6c0-1.9-0.5,0-0.7-2.3c0,1.3-1.1,0.9-2,0.4c-0.9-0.5-1.8-0.9-1.6,0.7
					c0-1.3-0.4-1.8-0.8-2.2c-0.4-0.4-0.9-0.9-1.1-2.2c-0.2,0.5,0,1.2-1.1,0.3c-0.1,0.1-0.4,0.2-0.5,0.3c0,0,0-0.1-0.1-0.1
					c0,0,0,0.1,0,0.1c-0.1,0-0.1,0.1,0,0c0.2,0.4,0.3,0.8,0.2,1.1c-1.3,0.8-3.3-0.4-4.3-0.3c-0.6-0.7,0.7-0.4,0.6-1.1l-1.5,0.2
					c0.6-1.1-0.8-3,1.3-2.5l-1.5-1c-0.5-1.2-1.5-2.3-2.5-2.4c-0.5-0.7-2.5-0.2-1.3-0.5c-0.9-0.4-1.8-0.7-2.6-1.2l0.2-0.3
					c-1-0.9-2.3-1.5-3.5-2.3c-1.2-0.8-2.2-2-2.2-3.8c-0.8-0.5-1.7-1-2.1-2.4l0.8-0.8c-0.4-0.4-0.7-1.1-0.8-1.8
					c-0.1-0.7-0.3-1.3-1-1.3c0.5-0.6,0.7-1.1,0.7-1.7c0-0.6-0.2-1.2-0.5-1.8c-0.7-1.1-1.4-2.5-1.4-3.4l-1.4,0.3
					c-0.2-0.6-0.3-1.3-0.6-1.9c-0.3-0.7-0.7-1.3-1.1-2.1l-1.3,0.3c-0.6-0.7-0.4-1.7-0.2-2.8c0.1-0.3,0.1-0.6,0.2-0.8
					c0.1-0.3,0.2-0.6,0.3-0.9c0.2-0.6,0.3-1.2,0.2-1.8c0.5,0.2,0.4,0.8,0.1,1.2c0.7-0.7,1-1.4,0.9-2.1c0-0.7-0.2-1.5-0.4-2.2
					c-0.5-1.5-0.9-3.1,0.3-4.2c-0.4-0.7-0.1-1.2,0.3-1.5c0,0.1,0,0.1,0,0.2c0-0.1,0.1-0.2,0.1-0.3c0.3-0.2,0.6-0.4,0.9-0.7
					c-0.4,0.2-0.7,0.4-0.8,0.6c0.1-0.5,0.1-1.2,0-2.1l1.4,0.1c0-0.1,0-0.1,0-0.2c0.7-0.5-0.4-0.7-1.6-0.7c-0.1-0.4-0.2-0.8-0.5-1.2
					c2.3,0.1-0.1-2.2,2.4-2.1c-0.8-0.9,0.6-3.8-1.3-5.2c0.3,0.1,0.5,0,0.4,0.4c0.7-0.7,1.3-1.3,1.1-2.3l1.7,0.5
					c-0.4-0.9-0.7-1.8-1-2.8c1.5-0.4,2.3-0.4,2.8,1.2c-0.1-1.7,0-2.3,0.1-2.8c0.2-0.5,0.3-1,0.2-2.5l0.8,0.8c0.2-0.3,0.2-1,0.4-1.6
					c0.1-0.5,0.3-1,0.9-0.9c0.7,0,1.5-0.4,2.2-1c0.8-0.6,1.8-1.4,2.7-2.3c1-0.8,2.2-1.7,3.3-2.5c1.2-0.7,2.5-1.2,3.7-1.5
					c-1.3-1.2-0.6-1.1,0.2-1.1c0.8,0,1.8,0.1,1.3-1.1c0.6,0.5,1.4,0.6,1.1,1.6c0.8-1,1.8-1,2.5-1.3c0.8-0.2,1.3-0.6,1.7-1.9
					c0.6,0.6,0,1.2,0.4,1.6c0.1-0.2,0.4-0.9,0.8-0.6c0.4,0.3-0.1,0.7-0.2,1.2c2.1-1,1.4-3.4,0.8-5.6c1.6,0.5,2.1,0.2,2.5-1.5
					c0.7,0.5,1.6,1,0.2,1.8c0.9-0.3,5.4-0.6,5-2.3c0.4,0.4,1.2-0.2,1.4-0.4c2-0.4,2.2-0.3,4.1-0.8l-0.6-0.2c0.4-2.3,1.6-0.8,3.1-1.3
					l0,0.2c1.9,0.6,2.3,0.3,2.7,0.1c0.4-0.2,0.8-0.4,2.6,0.4l-0.3-1.3c0.1-1.5,0.9-1.1,2-0.5c1.1,0.6,2.3,1.5,3.4,0.9l-0.8-0.8
					c0.6-0.5,1.4,0.5,2.2,1.7c0.8,1.2,1.5,2.6,2,2.8c0.2,0.3-0.4,0.4-0.7,0.6c2.8,1.8,0.4-1.8,2.7-2.1c0.3,1-0.7,2.4,0.7,2.7
					c0.3,0.4,1.4-0.3,2.7-0.8c1.3-0.5,2.7-0.8,3.6,0.3c-0.3-0.8-0.6-1.6,0.5-2c0.8,0,1.7,0.9,2.7,1.6c0.9,0.6,1.9,1.1,2.8,0.1
					c0.1,0.2,0.2,0.5,0.1,0.6c1.3-0.3,4,0.1,5.1-0.9c-0.1,2.4,1.8,2.4,3.6,2.5c1.9,0,3.6,0.1,2.8,2l1.8,0.6l1.7,0.7l-0.3,0.4
					c2,1.2,3.2,0.7,4.4,0.2c0.4,0.5-0.2,0.7-0.3,0.9c0.7,0.6,1.2,1,1.7,1.4c0.5,0.4,0.9,0.6,1.3,0.7c0.9,0.3,1.9,0.1,3.7,0l-0.5,1.4
					c0.5-0.1,1.3,1,2.4,2.3c1,1.3,2.4,2.6,4.2,3.1c-0.1,0.1-0.3,0.3-0.7,0.3c1,0.3,1.8,1,2.5,1.8c0.7,0.9,1.2,1.8,1.8,2.7
					c1.1,1.7,2.1,2.9,4.5,1.6c0.9,0.3,1.8,0.6,2.7,1c-2-2.7,2-1.2,1.6-2.8c1.2,0.8,1.3,3.6-0.1,2.6l0-0.4c-1.2,0.7-0.6,1.6,0,2.5
					c0.6,0.9,1.3,1.8,0.6,2.4c2.1,2.4,3.9,5.3,5,7.9c0.6,1.3,1,2.6,1.2,3.7c0.3,1.2,0.3,2.1,0.4,3.1c0.7-0.2,1.4-0.4,2-0.7
					c0,0.6,0,1.1-0.1,1.7c-0.5,0.4-1.6,0.5-1.5-0.6c-0.6,0.3-0.3,0.7,0.1,1.1c0.4,0.4,1,0.9,1.2,0.9c-0.6,1.2-1.2,0.8-1.6,0.3
					c-0.4-0.5-0.8-1.1-0.8-0.8c0,0.3,0,0.6,0,0.9l0.3-0.2c0.7,0.9,1.6,1.2,1,2.7c-0.7,0.9-1.4,0.1-1.6,0.5c-0.1,0-0.2,0.1-0.3,0.6
					c-0.3,0.7-0.7,1.5-1.1,2.3l1.9-0.4c0.3,1.4-1,2.3,1.2,1.8c-0.8,0.2-1.6,0.8-2.2,1.7c-0.7,0.8-1.2,1.8-1.7,2.8
					c-1.2,2-2.1,4.1-2.8,4.3c0,2-0.8,3.4-2.3,4.9c0.6-0.2,2.2,0.7,1,2c-1.3-1.4-2.1-1-3-0.4c-0.9,0.6-1.9,1.5-3.4,1.2
					c1.1,0.1,0.4,1.1-0.2,2.1c-0.6,1-1.2,2,0.5,2.1c-1.3,0.9-1.1-0.9-2.5-0.7c-0.3,0.9-0.9,1.6-1.5,2.3c-0.7,0.6-1.5,1.2-2.4,1.8
					c-1.7,1.2-3.6,2.2-5.1,3.8c0.3,0.4,1.3,0.5,1.1,1.7c-1.1-0.1-2.3-0.3-3.4-0.5c-0.5,0.7,1.2,2.7-1.1,2.4c0.4,0.2,1.1,0.5,0.7,1
					c-2,0.9-3.9,1.9-5.7,3.2c-0.9,0.6-1.8,1.2-2.7,1.9c-0.9,0.6-1.7,1.3-2.7,1.9c-0.9,0.6-1.8,1.2-2.8,1.7c-0.9,0.5-1.9,0.9-3,1.3
					c-2,0.8-4.2,1.1-6.6,0.8c1.4,0.4,0.8,0.8,0,1.2c0.6,0,0.4,1.1,0.8,1.7c-1.3-0.1-2.7-0.4-4-0.6c0,1-0.9,1.4-1.7,1.6
					c-0.9,0.3-1.7,0.5-1.6,1.4l1-0.6c-0.4,1.2,0.4,2.2,1.4,3.2c1,1,2.3,2,2.6,3.3c0.5-1.5,1.9-1,3.5-0.8c1.6,0.3,3.3,0.2,4-2
					c0.8,0.2-0.2,1,0.4,1.5c0.2-1.4,1-1.9,2.8-2.2l0,0.3c4.2-2.4,6.6-2.4,11.7-4.7l-1.1-0.9c1.1-0.5,1.5-0.3,2.2-0.3
					c0-2.4-2.8,1.7-3-0.9c1.4,0.7,3.1-0.4,4.8-1.5c1.7-1.1,3.3-2.2,4.6-1.2c1.5-1.1-1.3-0.9,0.1-2l0.9,0.4l-0.3-1.1
					c1-0.6,2.2-0.1,2.6,0.4c-0.3,0.1-0.5,0.7-0.7,0.9c0.9-0.1,1.7-0.8,2.4-1.6c0.7-0.7,1.1-1.5,1.4-1.5c-0.6,0.2-1.1,0.5-1.7,0.7
					c3.2-3.8,8.5-7.1,10.5-11.8l-0.7-0.2c0.8-1.7,1.4-2.1,2.1-2.6c0.7-0.4,1.5-0.8,2.6-2.5l0,0.2c0-1,0.4-2.1,1.1-2.9
					c0,1.3,2.3-0.6,2.2,0.9c0.7-2,0.8-2.5,0.7-3c-0.1-0.5-0.5-0.9-0.7-2.7l1.2,0.1c-0.3-1.3-0.7-1.6,0.1-3.4c-0.1,1.9,2-0.3,2.1,1.9
					c1-0.6,1.7-1.4,2-2.1c0.4-0.7,0.5-1.6,0.6-2.3c0.1-0.7,0.2-1.3,0.5-1.8c0.3-0.5,0.8-0.8,1.8-0.9c-1-1.4-1.7-0.8-2.2,0.1
					c-0.6,0.9-0.9,2-1,1.4c-1.3,0.4-1.2-2.4-0.5-3.4c0.5-1.2,4.3-0.5,5.5-4c-0.1,0.3,0.1,0.4-0.1,0.8c0.6-0.5,0.5-1.3,0.6-2
					c0-0.8,0.1-1.5,0.9-2.3c-0.8-0.7-0.6-1.2-0.6-1.7c0-0.5,0-0.9-1.1-1.2c0,1.2,0,2.4-0.1,3.5c-0.1-1-0.7-2.1-1.1-3.2
					c-0.4-1.1-0.7-2.3-0.1-3.9c0.5,0.2,1.1,1.2,1.4,1.9c0.7-1-0.5-1.9,0.1-3c1.1,0,1.4,1.2,1.4,2.6c0.1,1.4-0.2,3,0.5,4.3
					c0.6-0.5,0.3-1.6,0.2-2.5c-0.1-0.8-0.2-1.4,1-0.7c-1.5-1-1.4-2-1.3-3.2c0.1-1.2,0.1-2.8-1.4-3.8l1.3-0.2
					c-0.3-0.4-1.2-1.1-1.4-1.9c0.7,0.3,1.4,0.6,2.1,0.9c-1.1-1-1.1-2.1-1.2-3.3c-0.1-1.2-0.1-2.4-1-3.1c1.1,2,0.8,2.4,0.3,2.6
					c-0.5,0.2-1.3,0.1-1.3,1.1c-1.9-2-1.6-2.9-1.1-4.2c0.5-1.2,0.9-2.7-0.9-4.7c0.6,0.5,0.9,2.8-0.2,2.1c-0.4-1-0.7-2.4-0.6-3.3
					c-2.4-2.6-0.8,1.3-2.3,0.6c0.6-1.9-1.5-1-2.9-1.8l1-0.9c-1.9-3.6-2.8,1-4.3-2.3c0.8-0.1,1.6-0.1,2.4-0.2c-0.5-0.4-1.1-0.7-1.6-1
					l1.4-0.8c-2.3-0.7-2.4-1.4-3.5-3.1c-0.4,1-1.9,1.6-3.2,0.4c-0.3-1.4,1.4-0.5-0.5-2c1-0.3,2.2-0.6,2.1,1.1c0.4-0.2,1-0.2,1.4-0.5
					c-0.3-1.6-2.2-2.4-2.9-3c0.2,0.3,0.5,0.6,0.5,0.9l-4-0.9c-0.1-0.8,0.5-0.8,1.1-0.8c-0.6-0.4-1.4-0.2-2.3-0.8
					c0.9-0.7,1.6-1.6,3.1-1c-1.2-0.4-2.3-0.8-3.5-1.2c0.1-0.5-0.6-2.2,0-2.2c-1.2-1.7-5.1-1.1-6.7-3.1c-0.2,0.1-0.6,0.1-1.1,0
					c-0.9-0.8-1.7-1.7-2.6-2.4c-0.9-0.8-2-1.4-3.6-1.3l-0.5-2.5c-2.2-0.6,0.8,3.2-2.8,2.2c-2.6-0.5-0.1-1.9-0.7-2.8
					c-0.8,0.2-1.9,0.5-3,0.5c-1.1,0-2.2-0.3-3-1.5C534.9,430.7,535.4,431.2,536.1,431.3z M509.7,425.3c0.6-0.3,1.7-1,2-0.1
					C510.9,426.6,510.5,425.8,509.7,425.3z M470.2,434.1c0.2-0.6,0.8-0.6,1.6-0.4C471.4,434,470.9,434.2,470.2,434.1z M463,517.2
					C462.9,517.2,462.9,517.2,463,517.2C462.4,516.2,462.6,516.6,463,517.2z M464.4,518.9c0.3,0,0.4-0.2,0.4-0.4
					c-0.3,0.2-0.7,0-1.1-0.4C463.6,518.4,463.7,518.8,464.4,518.9z M569.5,486.6l0.5-0.2C570,487.3,569.8,487,569.5,486.6z"/>
				<path class="st9" d="M473.8,430.7c0.2,0.2,0.3,0.4,0.5,0.6C474.4,431,474.3,430.8,473.8,430.7z"/>
				<path class="st9" d="M551.4,438.7C551.5,438.7,551.5,438.7,551.4,438.7c0.1,0,0.2,0,0.3-0.1L551.4,438.7z"/>
				<path class="st9" d="M434.4,498.4c0.1-0.6,0.2-0.9,0.4-1.2C434.5,497.3,434.3,497.6,434.4,498.4z"/>
				<path class="st9" d="M475.1,522.5l-1.3-0.3c0.6,0.2,0.7,0.6,0.9,0.9C474.7,522.8,474.7,522.3,475.1,522.5z"/>
				<path class="st9" d="M482.9,534.9c0.3-0.1,0.4,0.1,0.7,0l0.1-0.6C482.9,534.1,482.1,534.4,482.9,534.9z"/>
				<path class="st9" d="M474.2,527.1c-0.4,1.1,0.6,1.1,1.6,1.3c-0.1,0-0.1,0-0.2-0.1C476.6,527,475.4,527.1,474.2,527.1z"/>
				<path class="st9" d="M476,528.5c0.3,0.1,0.6,0.2,0.8,0.3C477.2,528.3,476.6,528.6,476,528.5z"/>
				<path class="st9" d="M467,519.7c0.2,0.5,1-1.1,1-0.6C469.2,518.2,464.6,519,467,519.7z"/>
				<path class="st9" d="M473.3,530.9l0.3-1.4l-1,0.8C472.8,530.5,473.1,530.7,473.3,530.9z"/>
				<path class="st9" d="M466.7,526.2l1.2,1.2c0.1-0.2,0.3-0.2,0.6-0.2C467.7,526.6,466.9,525.8,466.7,526.2z"/>
				<path class="st9" d="M468.6,527.2c0.4,0.3,0.9,0.5,1.3,0.4C469.6,527.5,469,527.2,468.6,527.2z"/>
				<polygon class="st9" points="471.1,530.3 470.8,529.8 469.9,529.2 				"/>
				<path class="st9" d="M453,515.9c-0.5-0.3-1-0.6-1.5-0.9c-0.5,0.2-0.3,0.8,0.3,1.1C452.3,516.2,452.9,516.5,453,515.9z"/>
				<path class="st9" d="M454.6,522.4c-0.2-0.5,0-0.8,0-1.3l-1.1,1.3L454.6,522.4z"/>
				<path class="st9" d="M450.2,519.2c-0.5,0.2-3-0.9-1.1,0.7C449.5,519.7,451.2,520.7,450.2,519.2z"/>
				<polygon class="st9" points="438.4,494.4 438.5,494.9 441.3,494.2 				"/>
				<path class="st9" d="M432.9,468.8c-1.3,2.2,1.6,1,0.2,2.9c0.5,0.7,1.1-1.5,1.5-0.8C434.3,469.3,434.9,468.7,432.9,468.8z"/>
				<path class="st9" d="M434.7,470.9c0.1,0.2,0.1,0.5,0.2,0.8C434.8,471.2,434.8,471,434.7,470.9z"/>
				<polygon class="st9" points="513.4,535.4 512.1,535.2 513.1,535.9 				"/>
				<path class="st9" d="M511.7,538.1l-0.7-1.7l-0.3,1.8C510.9,538.1,511.4,537.8,511.7,538.1z"/>
				<path class="st9" d="M505.9,421.2l-0.1,0.4c0.2,0.5,0.6,0.5,1.3,0.7C506.6,421.9,506.2,421.6,505.9,421.2z"/>
				<polygon class="st9" points="525.7,426.1 525.3,425.9 525.5,427.7 				"/>
				<path class="st9" d="M542.3,430.2c-0.6-0.4-1.5-0.4-2.1-0.7C541.7,429.9,541.6,432.2,542.3,430.2z"/>
			</g>
			<g>
				<path class="st7" d="M500.4,457.5l-5.1,44.8l-7.1-0.8l3.8-33.7L479.3,480l1.1-10.1l13.5-13.2L500.4,457.5z"/>
				<path class="st7" d="M537.6,492.8c-1,9.1-8,14.3-17.4,13.3c-8.3-0.9-13.5-6.2-13.6-14.1l7.1-1.8c-0.5,5.3,2.4,8.8,7.4,9.4
					c5.1,0.6,8.9-2.4,9.4-7.6c0.6-5.3-2.3-9-7.2-9.6c-3.5-0.4-6.3,0.9-8.3,3.4l-6-2.2l4.2-24.6l26.6,3l-0.7,6.5l-20.1-2.3l-2,12.4
					c2.3-1.6,4.8-2.5,8.4-2.1C533.5,477.4,538.6,483.8,537.6,492.8z"/>
			</g>
		</g>
		<g>
			<path class="st10" d="M799.4,656.1c0.9,0.1,0.6-1,0.7-1.2C798.6,655.1,799.5,656.4,799.4,656.1z"/>
			<polygon class="st10" points="784.8,658.7 785,658.3 782.9,659.4 			"/>
			<path class="st10" d="M771,658.7c1.3,1.9,5-0.3,7.4,0.4l0.4,0.4l1.1-1.6C777,658.2,773.1,659.3,771,658.7z"/>
			<path class="st10" d="M763.7,654.5c0.4,0.8-1.6,0.6,1.7,0.2c-0.2-0.1-0.2-0.1-0.3-0.2C764.8,654.6,764.4,654.6,763.7,654.5z"/>
			<path class="st10" d="M765.1,654.6C766.5,654.5,764.1,653.9,765.1,654.6L765.1,654.6z"/>
			<path class="st10" d="M758.4,655l1.9-0.7c-0.4-0.4-2.1-0.6-1.5-0.9C756.9,653.8,757.3,654.2,758.4,655z"/>
			<path class="st10" d="M756.5,656.4l1-0.3C757.4,655.9,757.1,655.8,756.5,656.4z"/>
			<path class="st10" d="M759.6,655.5l-2.1,0.6c0.3,0.3,0.3,0.9,1-0.2C758.3,656.4,758.7,655.9,759.6,655.5z"/>
			<path class="st10" d="M760.8,655.8c1.1,0.4,2.5,0.7,0.5,1.4C765,656.9,764.5,655.5,760.8,655.8z"/>
			<path class="st10" d="M770.3,660.7l1.4,0.6l1.2-0.6C772.3,660.9,770.2,660.1,770.3,660.7z"/>
			<path class="st10" d="M746.5,653.9c-0.1,0.4,0.6,1.1,0.8,1.6l1.4-0.5C747.9,654.8,746.6,654.5,746.5,653.9z"/>
			<path class="st10" d="M747.2,655.5l-2.1,0.7C747,656.3,747.4,656,747.2,655.5z"/>
			<polygon class="st10" points="756.2,658.5 759.7,657 755.5,658.5 			"/>
			<polygon class="st10" points="738.4,653.8 739.6,652.8 737.5,654.2 			"/>
			<path class="st10" d="M733.1,653.9c0.9-0.8-1.2-1.3-0.3-1.8c-1.5,0.1-2.7,0.8-3.8,1.4C730.2,653.1,731.4,653.2,733.1,653.9z"/>
			<path class="st10" d="M727.1,654.3c0.6-0.2,1.2-0.5,1.9-0.9C728.3,653.6,727.7,653.9,727.1,654.3z"/>
			<path class="st10" d="M741.5,656c-0.2-0.2-0.5-0.9-1.7-1.2l0.8,1.2C741,655.9,741.2,655.9,741.5,656z"/>
			<path class="st10" d="M740.7,656L740.7,656c-0.9-0.1-1.6-0.1-1.8-0.1C739.1,655.9,739.7,655.9,740.7,656z"/>
			<path class="st10" d="M741.7,656c-0.1,0-0.1,0-0.2,0C741.6,656.1,741.7,656.1,741.7,656z"/>
			<path class="st10" d="M750.7,657.4c-1.2,0.6-3.8,1.3-1.3,2.3C750.2,658.9,748.8,658.4,750.7,657.4z"/>
			<path class="st10" d="M742.8,657.4l2.2,0.3c0-0.3-0.4-0.8,0.2-1.1L742.8,657.4z"/>
			<polygon class="st10" points="741.7,657.8 742.8,657.4 741.9,657.3 			"/>
			<path class="st10" d="M730.9,655.4c-1,0.5-2,0.5-3.2,0.6c1.3,0.2,2.6,0.4,3.9,0.4C731.7,656,732.3,655.4,730.9,655.4z"/>
			<path class="st10" d="M735.7,655.8c-0.1,0-0.2,0-0.2,0.1C735.6,655.9,735.7,656,735.7,655.8z"/>
			<path class="st10" d="M715.9,655.9c0.1,0.1,0.1,0.1,0.2,0.2c0-0.1,0-0.1,0-0.2L715.9,655.9z"/>
			<path class="st10" d="M731.8,656.6c1,0.2,1.5,0,2.1-0.4c-0.7,0.1-1.5,0.2-2.3,0.2C731.5,656.6,731.5,656.7,731.8,656.6z"/>
			<path class="st10" d="M723.8,654.8c0.5,0.2,1.1,0.5,1.7,0.7C725,655.1,724,654.5,723.8,654.8z"/>
			<path class="st10" d="M735.1,655.5c0,0,0.1,0,0.1-0.1C735,655.2,735,655.3,735.1,655.5z"/>
			<path class="st10" d="M735.1,655.5c-0.5,0.2-0.9,0.4-1.3,0.7c0.6-0.1,1.1-0.2,1.6-0.4C735.4,655.8,735.2,655.6,735.1,655.5z"/>
			<path class="st10" d="M712.2,663.2c0.2-1.1,2.7-2,4.9-0.8c2.2-0.8,0.8-4.3-1.1-6.3c-0.1,0.5-0.1,0.9-2.3,1.5
				c0.8,0.6,4.9,1.4,3,2.4c-2.9,0.5-2.4-0.4-3.8-1c1.2,1.3-3.8,1.9-3.1,3.9l2.6-0.7C712.5,662.5,711.5,663,712.2,663.2z"/>
			<path class="st10" d="M720.3,656.3l0.9-0.1c-1-0.2-1.8-0.6-3.1-1.5c-1.5,0.5-1.8,0.9-2,1.3l4.5,0.2L720.3,656.3z"/>
			<path class="st10" d="M725.3,656.2c-0.7,1.2-2.9,1.6-1.6,2.9c2.7-0.1,1.9-1,3.5-1.4c-4.3,0.2,1.2-0.6-1.9-1.3
				c0.9-0.2,1.6-0.2,2.3-0.3c-0.8-0.1-1.5-0.3-2.2-0.6c0,0,0.1,0,0.1,0.1l0,0c0,0,0,0,0,0c0.2,0.1,0.2,0.2,0,0.2c0,0-0.1,0-0.1,0
				C725.5,655.9,725.4,656,725.3,656.2c-1.2-0.3-0.2-0.3,0.2-0.4c0-0.1,0-0.1,0.1-0.2l0,0l-4.3,0.6
				C722.1,656.3,723.3,656.3,725.3,656.2z"/>
			<path class="st10" d="M747,662.2c-0.1-0.1-0.1-0.2-0.1-0.3C746.6,662.1,746.5,662.2,747,662.2z"/>
			<path class="st10" d="M745.2,661.5c0.3-0.2,0.6-0.6,1.6-0.5c0.9,0.4,0,0.6,0,0.9c0.6-0.3,2.2-0.8,0.2-1.4l-0.3,0.2
				c-1.7-0.4-4-1.9-3.7-2C743.6,659.7,744.1,660.5,745.2,661.5z"/>
			<path class="st10" d="M735.1,659.1l-3.6,0.5l1.8,1l-0.1-0.6C735.3,660.3,734.9,659.6,735.1,659.1z"/>
			<polygon class="st10" points="715.5,655.3 716,654.1 713.9,655.8 			"/>
			<polygon class="st10" points="710.8,655.4 711,654.3 709.7,654.9 			"/>
			<path class="st10" d="M446.1,664.4l-1.1,0.3C445.5,664.6,445.9,664.5,446.1,664.4z"/>
			<path class="st10" d="M453.8,664.6l0.2-0.5C453.6,664.3,453.5,664.5,453.8,664.6z"/>
			<path class="st10" d="M595.7,653.8c-1.5-1-3.2-2.6-3.1-1.4l0.5,1.2C594.2,653.4,595,653.5,595.7,653.8z"/>
			<path class="st10" d="M516.8,659.5c0.1,0.1,0.3,0.2,0.4,0.4c0.4-0.4,0.7-0.8,1.1-1.1C517.8,658.9,517.3,659.2,516.8,659.5z"/>
			<path class="st10" d="M515.6,664.3l-2-0.8C514,663.8,514.7,664,515.6,664.3z"/>
			<path class="st10" d="M404.2,664.9l-1.3,1.2C404.9,666.1,404,665.4,404.2,664.9z"/>
			<path class="st10" d="M662.8,655.2c-1.3-0.5-2.4-0.7-3.3-0.8C661.1,655.1,662.4,656.1,662.8,655.2z"/>
			<path class="st10" d="M449.3,652c-0.7,0.2-0.9,0.4-0.9,0.7C449.1,652.5,449.5,652.3,449.3,652z"/>
			<path class="st10" d="M655.6,654.4c0.2,0.1,0.5,0.2,0.7,0.3c1-0.2,2-0.3,3.1-0.2C658.3,653.9,657,653.6,655.6,654.4z"/>
			<path class="st10" d="M252.2,661.6c-0.1-0.1-0.2-0.1-0.3-0.1C251.9,661.6,252,661.6,252.2,661.6z"/>
			<path class="st10" d="M208,649.4c0.4-0.1,1.2-0.1,1.8-0.1C209.5,649.2,209,649.3,208,649.4z"/>
			<path class="st10" d="M692,654.6C693,654.6,692.1,654.5,692,654.6L692,654.6z"/>
			<path class="st10" d="M696.7,659.3c-0.2,0.1-0.4,0.3-0.4,0.6C696.4,659.6,696.6,659.4,696.7,659.3z"/>
			<path class="st10" d="M645.6,661.5C645.6,661.5,645.6,661.5,645.6,661.5C645.8,661.7,645.8,661.7,645.6,661.5z"/>
			<path class="st10" d="M693.4,655.2c-0.4-0.1-0.8-0.3-1.3-0.4C692.4,654.9,692.8,655,693.4,655.2z"/>
			<path class="st10" d="M693.3,654.6c0.3,0,0.6,0.1,0.9,0.1C694.2,654.6,694.1,654.4,693.3,654.6z"/>
			<path class="st10" d="M690.6,654.7c0.6,0,1.1,0,1.6,0.1c-0.2-0.1-0.3-0.1-0.2-0.2C691.7,654.6,691.3,654.7,690.6,654.7z"/>
			<path class="st10" d="M333.7,659.6c-0.1,0-0.1-0.1-0.2-0.1C332.5,659.9,332.9,659.9,333.7,659.6z"/>
			<path class="st10" d="M569.6,665.5c0,0,0.1,0,0.1-0.1C569.7,665.5,569.6,665.5,569.6,665.5L569.6,665.5z"/>
			<path class="st10" d="M566,666.3c1.5-1.4,2.4-1.2,3.6-0.9l-1.1-3.4L566,666.3z"/>
			<path class="st10" d="M427.7,664.4l2.5,1.1c-3.1,1.7-5.2,1-2.9,2.6c0.4-3.7,9.8-0.2,10.2-3.9l1.6,0.8c-0.5,0-0.6,0.2-1,0.1
				c3.2,1.8,2.4-2.6,6.6-2c1.4,0.3,2.4,0.9,1.4,1.3l3.2-0.9c0.9,0.1,0.7,0.7-0.2,0.6l4.9-0.2l0,0.1c0.7-0.6,2.3-1.4,3.1-1.8
				c1.2,0.5-0.6,0.4-0.3,0.8l2.7-0.8c1.1,1-1.2,1.9-3.1,1.7c2.5,3.7,2.3-0.9,7.7,1.4l-2.6,0.4c1.6,2.1,3.6,1.4,6.5,2.7
				c-0.7-0.7-5.7-3.4-2.8-4.2c0.8,0.3,1.9,0.4,3.5-0.3c0,1.3,1.6,1,3.5,1l-0.2,1.7c2.1-0.5,2-1.3,3.2-2.1c2.3,0.2,2.8,1.6,3.3,2.7
				c3.7,0.3-2.6-2.2,1.9-2.4c3.1,0.7,5.3,0,9.1-0.9c2.2,0.6-0.4,1.1,0.4,1.6l2-1.3c0.5,0,0.3,0.5,0.2,0.7c1.6-0.5,0.2-1.7,2.7-2.1
				c0.7-1.9,5.2,2.9,8.4,0.8c0.8,0.5-0.4,1.1-0.2,1.7c4.4-1.3,3.7-1,7.4-2.8l3,1.2c-2.2-1.3,0.7-2.8,3.2-4c-0.8-0.6-1.5-1.2-1.9-1.5
				l4-0.9c0.5,0.3,0.1,0.9-0.6,1.6c0.3-0.1,0.5-0.3,0.7-0.4c1.4,0.7,0.7,1.6-0.4,2.6c-0.5-0.3-1-0.7-1.4-1.1c-1,1-1.9,2.2-1.8,3.2
				c0.3-0.2,0.8-0.4,1.3-0.4c-0.3,0.3-0.4,0.5-0.3,0.7c0.1,0.2,0.6-0.2,1.2-0.6l0.9,1.9l0.2-0.8l5.2,1.3c3.8-1.9,7.1-4.7,13-5.4
				c-1.5,1.4-0.4,2.3-0.5,4c-1.6-1.8-4.6,0.7-7.7,0.3c1.6,0.2,1.2,1,0.8,1.3l5.5-1.5c-0.1,1.4,1.1,1,2.6,1.6c-1-2.7,4.1-1.7,6.4-2.5
				c0.1,0.9-0.4,1.8-3.1,1.6c3,2.1,3.9-3.1,6.9-1.3c-0.7,0-1-0.1-1.3,0.3c1.6-0.8,5.4-0.1,4.4,0.7l-0.7,0c4.4,0.4,13.4,0.2,14.1-2
				c0,0.3-0.6,2.8-0.9,3.2l8-7.6c-0.7,2,1.9,6.7-1.8,7.8c1,0.3,2.3,0.6,4.6,0c-0.7-0.3-1.7-2.9-0.8-3c2.7,2.2,1.8,1.2,5.1,3.1
				c-1.1-0.4,0.2-3.5,1.9-3.4c-0.3,0.5,0.1,3.1-0.5,3.4l4.3-3c-1.1,0.5-0.2,2.6,0.7,3.4c-0.4-0.6,3.7,0.1,4.8-0.2l-1.8-0.7
				c4.8,0.5,4.8-4.2,9.5-4c-0.6,0.6-1.5,3.8,0.9,4.3c1.1-1.5,5-7.4,9.2-8.5l0.8,0.9l3.2-1c-2,2.3-7.7,7.1-10.8,9
				c1.8,0.7,0.5,1.1,3.2,1c0.9,0.8-1.5,1.2-2.3,1.3l6.2,0.6c-0.2-1.8,4.8-1.7,4.6-3.3l-6.8,1.8c-0.2-1.8,4-5.1,8.4-4.7
				c1.1,0.7-0.9,3.2-0.8,3.8c0.6-0.6,4.2-1.1,4.6-0.7l-1.9,0.9c2.4,0.7,4-2.3,7-0.6c1,0.1,3,2.4,3.2,1.3c-1.6-2.1-1.9-8.5-0.7-10.1
				c0.4,0.1,5.3,2.1,6.5,3.1c1.7,1.7-2.6,3.8-1.2,5.2c0.1-0.5,1-1.1,1.4-1.3c1.1,0.4-0.5,1.5,1.9,1.3c0.4-1.8,4.7,0.2,1.1-1.5
				c2.3-0.5,2.4,0.4,5.1,0.4c-0.8-1.2,2.5-4,4.7-4.5c-0.1,0.5,0.4,1.1,0.6,1.4c4.7,0.2,7.2,1.1,11.5,1.2c0.4,0.5,2.5,1,1.6,1.8
				c0.6-0.3,1.2-0.9,2.6-1c2.6,1.6-3,0.2-1,2.1c0.2-1.1,3.5-1.4,5.4-2.1c-0.6-1.7-4.4-0.4-6.3,0.3c0-2.3,3.4-4.6,7.9-5.6
				c3.6-0.5,1.5,1.5,2.2,1.2c6.8,0.5,5.8-3.9,11.4-2.2c2.2,1.5,0.1,2.9,0.5,3.9c-2.9,0.5-4.5-1-6.5-1l2.4,0.7
				c-0.9,0.5-2.9,0.8-4,0.4c1.9,1.3,11.5,0.4,16.7,1.7c0.9-0.5,2.5-1,1.8-1.6l-1.7,0.2c-1.5-1.2,3.1-1.6,1-2.2
				c2.2-0.8,4.7-2.1,7.9-1.4l0.6,1.7c-0.1-0.5-2-1-2.9-0.5c1.3-0.7,4.8,2.3,6.2,0.2l-2.2-1.2c2.2-0.8,5-2.5,7.8-2
				c-1.2-1.7-0.6,0.2-2.6-1.8c1.7,2.4-7.1-0.2-4.4,2.3c-2-2.2-3.5-1-6.1-2.9c0.1,0.5,0.9,1.1-1.4,0.8c-0.1,0.2-0.4,0.4-0.5,0.5
				c-0.1,0-0.1,0-0.2,0c0,0,0.1,0,0.1,0.1c-0.1,0.1-0.1,0.1,0,0c0.6,0.2,1,0.5,1.2,0.8c-1.2,1.2-4.9,1.2-6.1,1.8
				c-1.4-0.3,0.6-0.6-0.2-1.2l-1.9,0.9c-0.2-1.2-3.6-2.1-0.4-2.7l-2.9-0.1c-1.7-0.7-4.1-1-5.5-0.5c-1.4-0.3-3.5,1.3-2.3,0.4
				l-4.6,0.7l0-0.3c-4.5-0.2-9.4,1.9-14.5-0.4c-1.5,0.3-3.1,0.6-5.7,0.3l-0.5-1.1c-2,0.3-5.9-1.1-6.7-0.1c-2.1-2.9-9.5-0.8-12.9-1.3
				l-0.2,1.4c-2.4-0.1-4.6,0.2-7.6,0.7l0.2,1.2c-2.6,1-6.5-1-10.5-0.9c0.3-0.5,1.3-0.3,2,0c-4.7-2.8-10.1,1.8-14.5-0.2
				c-1.1,0.4-1.9,0.3-2.6-0.1c0.1,0,0.2,0,0.3-0.1c-0.1,0-0.3,0-0.4,0c-0.5-0.2-1-0.5-1.5-0.7c0.4,0.3,0.9,0.6,1.3,0.7
				c-0.8,0-2.1,0.1-3.4,0.4l-0.5-1.3c-0.1,0-0.2,0-0.3,0c-1.2-0.5-1,0.6-0.4,1.6c-0.6,0.2-1.2,0.5-1.7,0.8c-1-2.1-3.3,0.7-4.6-1.6
				c-0.9,1.1-6.3,0.7-7,3c0-0.3-0.4-0.5,0.3-0.5c-1.4-0.3-2.8-0.6-4,0.1l-0.6-1.7l-3.1,2.2c-1.8-1-2.6-1.6-0.7-2.9
				c-4.4,1.9-3.6,0.7-7.4,2.6l0.2-1.1c-1.3,0-3.5,1.4-4.3,0.5c-3-2.1-14.8-0.5-22.5-2.6c1.4,3.2-3.5-1.5-3.9,1
				c-0.4-0.8-1.5-1.2-0.2-1.8c-3.9,0.7-5.9-1.3-8.6,0.7c-0.4-0.8,0.9-1.1,0.5-1.5c-0.3,0.2-1.3,0.6-1.7,0.2
				c-0.4-0.4,0.6-0.6,1.2-0.9c-4,0.1-4.5,2.3-4.8,4.5c-2-1.1-3-0.9-4.5,0.5c-0.7-0.7-1.9-1.5,0.6-1.7c-1.4-0.1-8.5-1.2-8.7,0.5
				c-0.4-0.4-2-0.2-2.3,0c-3.1-0.2-3.4-0.3-6.5-0.2l0.9,0.3c-1.3,2.1-2.6,0.4-5.1,0.6l0.1-0.2c-5.7-1.6-2.5,0.7-8.1-1.1l0.3,1.3
				c-0.6,2.8-5-1.7-8.2-0.7l1.2,0.8c-1.8,0.9-4.9-3.9-6.7-4.3c-0.4-0.2,0.6-0.4,1.2-0.5c-4.7-1.7-0.6,1.7-4.1,2
				c-0.6-0.9,0.9-2.3-1.5-2.5c-1.2-0.8-6.9,2.9-10.1,1c0.7,0.7,1.4,1.4-0.2,1.9c-2.5,0.2-6.7-2.8-9-0.6c-0.3-0.2-0.4-0.4-0.4-0.6
				c-1.9,0.5-6.2,0.8-7.4,2c-1.7-4.5-11.9,2-11.8-2.2l-5.9,0.1l0.2-0.4c-3.7-0.3-5.1,0.6-6.4,1.6c-0.9-0.3-0.2-0.7-0.1-0.9
				c-5.5-0.9-6-0.8-10.6,1.2l-0.5-1.3c-1.3,0.8-7.9-2.2-13.3-0.8c0.1-0.2,0.2-0.4,0.6-0.6c-6.1,1.5-14.4-4-16.7,0.9l-4,1.1
				c5.1,0.5-0.8,2.1,1.3,2.9c-2,0.3-5.2-1.6-2.7-1.8l0.4,0.3c1-2.5-6.4-1-6.2-2.7c-10.1,0-20-1.6-29.5-1.9l1.1,2l-3.3-0.2
				c-0.9-0.5-1.1-1.6,1.2-1.4c-1.2-1.1-4,0.9-4.1,1.3c-4.6-0.9,1.8-2.3,0.4-2.3l-1.9,0.1l0.4,0.2c-1.6,0.8-1.7,1.6-4.6,1.5
				c-1.8-0.4-0.9-1.2-1.6-1.3c0-0.1-0.2-0.2-1.1-0.1l-4.2-0.2l1.6,1.6c-1.9,0.7-3.9-0.1-2,1.7c-2.8-2.8-15.5-1.2-17.3-2.1
				c-2.6,1.1-5.2,1-8.3,0.9c0.8,0.3,1.2,2.1-1.5,1.8c1-3.6-5-1.6-7.2-4.3c1.9,1.8-7.8,0.3-4.7,2.8c-2.3-0.3-0.1-1.4-1.8-2.2
				c-5.4,1.3-11.9-1.1-18.7-0.7c-0.1,0.5,1,1.2-0.4,1.9l-3.5-2.4c-1.3,0.2-1.3,2.7-3.7,1c0.3,0.4,0.8,1,0,1.2
				c-6.6-1.2-13.3-0.8-20-0.7c-6.7,0.2-13.5,0-20.2-2.1c1.8,0.9,0.6,1-0.8,1c0.9,0.2,0,1.2,0.2,1.8l-5.6-1.8c-1,1.8-6,0.1-6.6,1.8
				l1.8-0.3c-2.3,2,3.3,4.5,3,7.1c2.6-2.3,6.9,3.4,11.2,0.1c0.9,0.5-0.8,0.8-0.3,1.4c1.1-1.1,2.4-1.3,4.9-0.8l-0.3,0.3
				c6.9-0.2,9.8,0.9,17.5,1.7l-0.6-1.3c1.7,0.2,2,0.6,2.8,0.9c1.9-1.9-4.7-0.1-2.9-2.3c2.2,2.6,11.7,0.1,13.2,3.1
				c2.6,0-0.7-1.5,1.8-1.4l0.7,0.8l0.7-1c1.7,0.2,2.5,1.2,2.6,1.9c-0.4-0.1-1.2,0.2-1.6,0.2c2.2,1,6.1-0.2,6.9,0.1l-2.4-0.5
				c7-0.7,15.5,0.5,22.2-1.1l-0.5-0.6c5.2-1,4.1,0.7,9.8,0.3l-0.2,0.1c1.1-0.6,2.7-0.9,4.2-0.8c-1.4,0.7,2.7,1.4,0.8,2.2
				c5.6-1.1,2.8-0.9,6.5-3.1l0.8,1c1.3-0.9,1.4-1.4,4.2-1.6c-2.3,0.8,1.8,1.6-0.8,2.7c5.9,2.3,8.8-2.1,11.5,1.2
				c2.8-2.7-5.1-1.6-3.6-2.2c-1.3-0.9,2.3-2,4.1-1.7c1.9,0.1,3.2,3.6,7.9,3.6c-0.5,0-0.5,0.2-1,0.2c1.8,0.7,3.5-0.9,5.7,0.3
				c1.3-1.7,2.8,0.1,3.2-2l-4.4,0.4c2.5-0.5,4.8-3,8.9-1.7c-0.3,0.4-1.5,1-2.4,1.3c1.2,0.7,2.3-0.4,3.5,0.3c-0.4,2.1-5.3,0.4-8,2
				c1.3,0.9,5-1.5,3.7,0.8c2-2.9,4.7,0.4,7.9-1.8l-0.2,1.3c0.5-0.2,1.6-0.8,2.5-0.7l-1.7,1.6c2.6-1.4,5,1.3,7.5,0.6
				c-5.2,0-1.2-1.6-3.4-2.5c6.5-1.6,3.7,3.4,10.9,2.9c-1,0.2-3.7-0.8-2.1-1.4c1.4,0.3,3.2,0.8,4,1.5c4.8-0.2-0.7-1.3,1.3-2.1
				c1.6,1.6,2.4-0.6,4.5-1.1l0,1.3c5.4,0.9,1.5-2.7,6.4-1.6l-2.1,1.8l2.6-0.4l-0.6,1.5c2.8-1.1,3.7-0.8,6.4-0.3
				c-0.6-0.9,0.4-2.4,2.8-2.4c1.6,0.8-0.9,1.2,2.5,1.1c-0.8,0.8-1.7,1.8-3.1,0.6c-0.2,0.4-0.8,0.8-0.9,1.2c1.8,0.9,4.5,0.3,5.7,0.3
				c-0.5-0.1-1-0.1-1.3-0.3l5-1.7c0.8,0.5,0.1,0.9-0.5,1.3c1-0.1,1.7-0.7,3.2-0.8c-0.4,1.1-0.3,2.1-2.4,2.6l4.8-1.1
				c0.3,0.5,2.4,1.3,1.8,1.7c2.6,0.7,6.5-1.9,9.9-1.1c0.2-0.2,0.6-0.4,1.3-0.5c3.3,0.3,6.1,1.6,10.1,0.3l2.2,1.9
				c3-0.4-2.9-2.4,2.1-3.1c3.6-0.5,1.3,1.6,2.6,2.2c1.8-0.9,4.9-2.8,8.2-1.2C429.6,664.5,428.7,664.2,427.7,664.4z M465.2,664.2
				c-0.7,0.3-2.2,1.1-2.7,0.3C463.4,663,464,663.7,465.2,664.2z M522.2,662.1c-0.5,0.4-1.4,0.2-2.3-0.3
				C520.6,661.6,521.4,661.7,522.2,662.1z M681.1,655.6C681,655.6,681,655.6,681.1,655.6C679.4,655.1,679.9,655.3,681.1,655.6z
				 M684.4,656.2c0.3-0.2,0.3-0.4,0.2-0.5c-0.2,0.3-1,0.3-1.9,0.2C683,656.2,683.4,656.4,684.4,656.2z M323.2,650.6l0.6,0.4
				C322.4,651.3,322.8,651,323.2,650.6z"/>
			<path class="st10" d="M515.7,663.7c-0.2-0.2-0.3-0.5-0.3-0.7C515.2,663.2,515.1,663.5,515.7,663.7z"/>
			<path class="st10" d="M404.4,664.6c0,0-0.1,0-0.1,0c-0.1,0.1-0.1,0.2-0.1,0.2L404.4,664.6z"/>
			<path class="st10" d="M632.1,666.4c-0.7-0.2-1.1-0.4-1.3-0.7C630.8,666.1,631.1,666.3,632.1,666.4z"/>
			<path class="st10" d="M702.3,654.2l-2.2,0.3c1-0.1,1.4,0.2,1.9,0.5C702,654.6,701.6,654.2,702.3,654.2z"/>
			<path class="st10" d="M720.9,662.5c0.3-0.2,0.7,0,1-0.2l-0.1-0.6C720.4,661.7,719.5,662.2,720.9,662.5z"/>
			<path class="st10" d="M704.2,658.5c0.2,1.1,1.5,0.7,3,0.6c-0.1,0-0.2,0-0.3,0C707.4,657.6,705.8,658,704.2,658.5z"/>
			<path class="st10" d="M707.6,659.1c0.5,0,0.9-0.1,1.4,0C709.1,658.4,708.4,658.9,707.6,659.1z"/>
			<path class="st10" d="M688.7,655.5c0.7,0.3,0.5-1.4,0.9-0.9C690.4,653.2,684.8,656.2,688.7,655.5z"/>
			<polygon class="st10" points="705.4,662.2 704.8,660.8 704,661.9 			"/>
			<path class="st10" d="M693.5,661l2.4,0.4c0-0.2,0.3-0.4,0.7-0.5C695,660.9,693.4,660.6,693.5,661z"/>
			<path class="st10" d="M696.5,661c0.8,0,1.5,0,1.9-0.2C698,660.8,697.1,660.8,696.5,661z"/>
			<polygon class="st10" points="702.1,662.5 701.4,662.2 699.7,662.1 			"/>
			<path class="st10" d="M667.5,660.4l-2.6,0.3c-0.3,0.5,0.4,0.8,1.4,0.6C667,661,667.9,660.9,667.5,660.4z"/>
			<path class="st10" d="M675.5,664.2c-0.7-0.3-0.8-0.6-1.1-1l-0.1,1.7L675.5,664.2z"/>
			<path class="st10" d="M667.8,664.5c-0.3,0.5-3.8,1.3-0.5,1.2C667.5,665.3,670.2,664.9,667.8,664.5z"/>
			<polygon class="st10" points="628.1,661.8 628.8,661.8 628.8,659 			"/>
			<path class="st10" d="M593.1,667.8c3.1,0.7,0.8-1.7,3.6-0.8c0.7-0.6-2.3-0.7-1.5-1.3C593.2,666.4,592.3,666,593.1,667.8z"/>
			<path class="st10" d="M595.1,665.7c0.3-0.1,0.6-0.2,1-0.4C595.5,665.5,595.3,665.6,595.1,665.7z"/>
			<polygon class="st10" points="200.7,647.9 198.7,647.4 200,648.3 			"/>
			<path class="st10" d="M196.8,650l-0.5-1.8l-1.2,1.6C195.6,649.7,196.5,649.6,196.8,650z"/>
			<path class="st10" d="M470.7,667.8l0.2-0.4c-0.3-0.5-0.8-0.5-1.7-0.6L470.7,667.8z"/>
			<polygon class="st10" points="443.5,666 444,666.1 443.2,664.5 			"/>
			<path class="st10" d="M420.7,667.6c0.9,0.1,2-0.3,3-0.2C421.6,667.7,420.5,665.7,420.7,667.6z"/>
		</g>
		<g>
			<circle class="st11" cx="413.9" cy="122.4" r="16.1"/>
			<path class="st12" d="M515.9,141l-28,16.9c-0.3,0.2-0.3,0.7,0.1,0.9l29.8,13.4c0.3,0.2,0.7-0.1,0.7-0.5l-1.8-30.3
				C516.6,141,516.2,140.8,515.9,141z"/>
			<polygon class="st2" points="326.1,141.4 305.5,144.4 292.5,128.1 300.2,108.7 320.9,105.6 333.8,122 			"/>
			<path class="st7" d="M12.8,324.1c-2.3-0.6-3.7-2.9-3.1-5.2l0,0c0.6-2.3,2.9-3.7,5.2-3.1l0,0c2.3,0.6,3.7,2.9,3.1,5.2h0
				c-0.5,1.9-2.2,3.2-4.1,3.2l0,0C13.5,324.3,13.2,324.2,12.8,324.1z M30,280.8c-2-1.2-2.7-3.8-1.5-5.9l0,0c1.2-2,3.8-2.7,5.9-1.5
				l0,0c2,1.2,2.7,3.8,1.5,5.9l0,0c-0.8,1.3-2.2,2.1-3.7,2.1l0,0C31.5,281.4,30.7,281.3,30,280.8z M57.2,242.9
				c-1.8-1.6-1.9-4.3-0.3-6l0,0c1.6-1.8,4.3-1.9,6-0.3l0,0c1.8,1.6,1.9,4.3,0.3,6l0,0c-0.8,0.9-2,1.4-3.2,1.4l0,0
				C59.1,244,58.1,243.6,57.2,242.9z M90.6,210.3c-1.5-1.8-1.2-4.5,0.6-6l0,0c1.8-1.5,4.5-1.2,6,0.6l0,0c1.5,1.8,1.2,4.5-0.6,6l0,0
				c-0.8,0.7-1.8,1-2.7,1l0,0C92.7,211.9,91.5,211.3,90.6,210.3z M128.5,182.9c-1.2-2-0.6-4.7,1.5-5.9l0,0c2-1.2,4.7-0.6,5.9,1.5
				l0,0c1.2,2,0.6,4.7-1.5,5.9l0,0c-0.7,0.4-1.5,0.6-2.2,0.6l0,0C130.7,185,129.3,184.3,128.5,182.9z M169.8,161.1
				c-0.9-2.2,0.1-4.7,2.3-5.6l0,0c2.2-0.9,4.7,0.1,5.6,2.3l0,0c0.9,2.2-0.1,4.7-2.3,5.6l0,0c-0.5,0.2-1.1,0.3-1.7,0.3l0,0
				C172.1,163.7,170.5,162.7,169.8,161.1z M213.8,145.3c-0.6-2.3,0.8-4.6,3-5.2l0,0c2.3-0.6,4.6,0.8,5.2,3l0,0
				c0.6,2.3-0.8,4.6-3,5.2l0,0c-0.4,0.1-0.7,0.1-1.1,0.1l0,0C216,148.5,214.3,147.2,213.8,145.3z"/>
		</g>
		<path class="st13" d="M936.8,353.3"/>
		<path class="st13" d="M706,473.1"/>
	</g>
	<g>
		<path class="st14" d="M234.7,373.4c-0.1,0.2,0.8,0.3,1,0.3C235.6,373.4,234.5,373.4,234.7,373.4z"/>
		<polygon class="st14" points="233.1,370.1 233.5,370.2 232.7,369.6 		"/>
		<path class="st14" d="M233.6,367.3c-1.6,0,0.1,1.1-0.6,1.5l-0.4,0l1.2,0.4C233.8,368.6,233.1,367.7,233.6,367.3z"/>
		<path class="st14" d="M237.3,366.5c-0.6,0-0.5-0.4-0.3,0.3c0.1,0,0.1,0,0.2,0C237.2,366.7,237.3,366.6,237.3,366.5z"/>
		<path class="st14" d="M237.2,366.8C237.2,367.1,237.8,366.7,237.2,366.8L237.2,366.8z"/>
		<path class="st14" d="M237.1,365.4l0.5,0.5c0.4,0,0.5-0.3,0.8-0.2C238.2,365.2,237.8,365.3,237.1,365.4z"/>
		<path class="st14" d="M236.1,364.8l0.2,0.2C236.4,365,236.5,365,236.1,364.8z"/>
		<path class="st14" d="M236.7,365.5l-0.4-0.5c-0.3,0-0.8-0.1,0.1,0.2C235.9,365.1,236.4,365.3,236.7,365.5z"/>
		<path class="st14" d="M236.4,365.7c-0.4,0.1-0.7,0.4-1.1-0.1C235.3,366.4,236.5,366.5,236.4,365.7z"/>
		<path class="st14" d="M232,366.9l-0.5,0.2l0.5,0.3C231.8,367.3,232.5,367,232,366.9z"/>
		<path class="st14" d="M238.4,363.2c-0.3-0.1-0.9,0-1.4-0.1l0.3,0.4C237.7,363.3,237.9,363.1,238.4,363.2z"/>
		<path class="st14" d="M237.1,363.1l-0.5-0.5C236.4,362.9,236.7,363,237.1,363.1z"/>
		<polygon class="st14" points="234.3,364.4 235.4,365.3 234.3,364.2 		"/>
		<polygon class="st14" points="238.8,361.6 239.5,362 238.4,361.3 		"/>
		<path class="st14" d="M238.9,360.5c0.6,0.3,1.1,0,1.5,0.3c-0.1-0.3-0.6-0.7-1-1C239.6,360,239.5,360.3,238.9,360.5z"/>
		<path class="st14" d="M238.7,359.2c0.1,0.2,0.4,0.3,0.7,0.5C239.2,359.6,239,359.4,238.7,359.2z"/>
		<path class="st14" d="M236.9,361.8c0.2,0,0.8,0.1,1-0.1l-1,0C236.9,361.7,236.9,361.8,236.9,361.8z"/>
		<path class="st14" d="M236.9,361.7L236.9,361.7c0.1-0.2,0.1-0.3,0.2-0.3C237,361.4,237,361.5,236.9,361.7z"/>
		<path class="st14" d="M236.9,361.9L236.9,361.9C236.8,361.8,236.8,361.8,236.9,361.9z"/>
		<path class="st14" d="M235.4,363.4c-0.5-0.4-0.9-1-1.9-0.6C234.2,363.1,234.7,362.9,235.4,363.4z"/>
		<path class="st14" d="M235.7,361.8l-0.3,0.4c0.3,0,0.6,0,0.9,0.2L235.7,361.8z"/>
		<polygon class="st14" points="235.4,361.6 235.7,361.8 235.8,361.7 		"/>
		<path class="st14" d="M237.7,359.8c-0.4-0.3-0.4-0.5-0.4-0.8c-0.2,0.2-0.4,0.5-0.4,0.7C237.1,359.8,237.6,360.1,237.7,359.8z"/>
		<path class="st14" d="M237.2,360.7C237.2,360.7,237.2,360.6,237.2,360.7C237.1,360.6,237.1,360.7,237.2,360.7z"/>
		<path class="st14" d="M237.8,356.7c-0.1,0-0.1,0-0.2,0L237.8,356.7L237.8,356.7z"/>
		<path class="st14" d="M236.7,359.8c-0.2,0.2,0,0.3,0.3,0.5c-0.1-0.2-0.1-0.3-0.1-0.5C236.7,359.7,236.6,359.7,236.7,359.8z"/>
		<path class="st14" d="M238.4,358.5c-0.2,0.1-0.4,0.1-0.6,0.2C238.1,358.6,238.6,358.5,238.4,358.5z"/>
		<path class="st14" d="M237.4,360.6C237.5,360.6,237.5,360.6,237.4,360.6C237.7,360.6,237.6,360.6,237.4,360.6z"/>
		<path class="st14" d="M237.4,360.6c-0.1-0.1-0.3-0.3-0.5-0.4c0.1,0.1,0.1,0.3,0.3,0.4C237.2,360.6,237.3,360.6,237.4,360.6z"/>
		<path class="st14" d="M231.9,354.6c0.9,0.2,1.6,0.9,0.5,1.2c0.6,0.6,3.5,0.9,5.2,0.9c-0.4-0.1-0.7-0.2-1.1-0.7
			c-0.5,0.1-1.3,0.7-2,0.2c-0.3-0.7,0.4-0.4,0.9-0.6c-1.1,0-1.4-1.1-3-1.3l0.4,0.6C232.5,354.8,232.2,354.5,231.9,354.6z"/>
		<path class="st14" d="M237.3,357.5l0.1,0.2c0.2-0.2,0.6-0.2,1.3-0.4c-0.4-0.4-0.7-0.5-1-0.6l-0.3,0.9L237.3,357.5z"/>
		<path class="st14" d="M237.2,358.5c-0.9-0.3-1.2-0.9-2.3-0.8c-0.1,0.6,0.7,0.5,1.1,1c-0.1-0.9,0.5,0.4,1.2-0.2
			c0.1,0.2,0.1,0.4,0.2,0.5c0.1-0.1,0.3-0.3,0.5-0.4c0,0,0,0-0.1,0l0,0c0,0,0,0,0,0c-0.1,0-0.2,0-0.1,0c0,0,0,0,0,0
			C237.5,358.6,237.3,358.6,237.2,358.5c0.3-0.2,0.3,0,0.4,0.1c0,0,0.1,0,0.1,0l0,0l-0.3-1C237.2,357.9,237.2,358.1,237.2,358.5z"/>
		<path class="st14" d="M231.6,361.9c0.1,0,0.2,0,0.2,0C231.7,361.9,231.6,361.8,231.6,361.9z"/>
		<path class="st14" d="M232.2,361.7c0.1,0.1,0.5,0.2,0.4,0.4c-0.3,0.1-0.5-0.1-0.8-0.1c0.2,0.2,0.6,0.6,1.1,0.3l-0.1-0.1
			c0.4-0.3,1.7-0.5,1.8-0.4C233.7,361.6,233.1,361.6,232.2,361.7z"/>
		<path class="st14" d="M234.5,360l-0.3-0.8l-0.9,0.2l0.5,0.1C233.5,359.8,234.1,359.9,234.5,360z"/>
		<polygon class="st14" points="238.3,356.7 239.3,357 238,356.3 		"/>
		<polygon class="st14" points="238.4,355.7 239.2,356 238.8,355.6 		"/>
		<path class="st14" d="M242.4,300.2l-0.2-0.3C242.2,300,242.3,300.1,242.4,300.2z"/>
		<path class="st14" d="M241.8,301.7l0.4,0.2C242,301.7,241.9,301.6,241.8,301.7z"/>
		<path class="st14" d="M244.1,332.9c0.9-0.1,2.2-0.1,1.3-0.3l-1-0.2C244.4,332.7,244.3,332.8,244.1,332.9z"/>
		<path class="st14" d="M243,315.7c-0.1,0-0.2,0-0.3,0c0.3,0.2,0.6,0.3,0.8,0.5C243.4,316,243.2,315.8,243,315.7z"/>
		<path class="st14" d="M239.2,314.3l0.7-0.2C239.7,314.1,239.4,314.1,239.2,314.3z"/>
		<path class="st14" d="M243.9,291.6l-0.9-0.5C242.9,291.4,243.5,291.4,243.9,291.6z"/>
		<path class="st14" d="M240.3,346.1c0.4-0.2,0.6-0.3,0.7-0.5C240.4,345.8,239.5,345.8,240.3,346.1z"/>
		<path class="st14" d="M252.1,303.8c-0.1-0.2-0.3-0.3-0.5-0.4C251.7,303.7,251.9,303.8,252.1,303.8z"/>
		<path class="st14" d="M241.2,344.9c-0.1,0-0.2,0.1-0.3,0.1c0.1,0.2,0.2,0.5,0.1,0.7C241.5,345.5,241.8,345.3,241.2,344.9z"/>
		<path class="st14" d="M253.4,261.8c0,0,0.1,0,0.1,0C253.4,261.7,253.4,261.7,253.4,261.8z"/>
		<path class="st14" d="M265.3,255.4c0,0.1,0,0.2,0,0.4C265.3,255.7,265.3,255.6,265.3,255.4z"/>
		<path class="st14" d="M239.6,352.1C239.7,352.3,239.7,352.1,239.6,352.1L239.6,352.1z"/>
		<path class="st14" d="M235.6,352.2c-0.1-0.1-0.2-0.1-0.4-0.2C235.4,352.1,235.6,352.1,235.6,352.2z"/>
		<path class="st14" d="M235.8,341.4L235.8,341.4C235.6,341.4,235.6,341.4,235.8,341.4z"/>
		<path class="st14" d="M239.1,352.3c0.1,0,0.3-0.1,0.3-0.2C239.4,352.1,239.3,352.2,239.1,352.3z"/>
		<path class="st14" d="M239.6,352.4c-0.1,0.1-0.1,0.1-0.1,0.2C239.6,352.6,239.7,352.6,239.6,352.4z"/>
		<path class="st14" d="M239.6,351.8c0,0.1-0.1,0.2-0.2,0.3c0.1,0,0.1,0,0.2,0C239.6,352,239.6,351.9,239.6,351.8z"/>
		<path class="st14" d="M251.4,278.6c0,0,0.1,0,0.1,0C251.1,278.3,251.2,278.4,251.4,278.6z"/>
		<path class="st14" d="M235.7,325C235.7,325,235.8,325,235.7,325C235.8,325,235.8,325,235.7,325L235.7,325z"/>
		<path class="st14" d="M235.2,324.1c1.1,0.6,0.9,0.8,0.6,0.9l2.8,0.6L235.2,324.1z"/>
		<path class="st14" d="M243.2,296.5l-1,0.2c-1.2-1-0.6-1.3-1.9-1.2c2.9,1-0.3,2,2.6,3l-0.7,0.1c0.1-0.1-0.1-0.2-0.1-0.2
			c-1.6,0.2,2,1.1,1.3,1.8c-0.3,0.2-0.8,0.3-1.1,0l0.5,0.9c-0.1,0.2-0.6,0-0.5-0.2l-0.1,1l-0.1,0c0.4,0.3,1,0.8,1.3,1.1
			c-0.5,0.1-0.3-0.2-0.7-0.3l0.5,0.8c-0.8,0-1.4-0.7-1.2-1c-3.1-0.4,0.6,0.7-1.4,1.2l-0.2-0.6c-1.8-0.2-1.3,0.4-2.5,0.7
			c0.6,0,3-0.3,3.5,0.5c-0.3,0.1-0.4,0.3,0.1,0.8c-1-0.3-0.9,0.1-0.9,0.5l-1.4-0.5c0.3,0.5,1,0.7,1.5,1.2c-0.3,0.4-1.4,0.2-2.3,0
			c-0.4,0.7,1.9,0,1.9,1c-0.7,0.5-0.3,1.1,0.3,2.1c-0.6,0.3-0.8-0.3-1.3-0.3l1,0.7c-0.1,0.1-0.4,0-0.6-0.1c0.3,0.5,1.4,0.4,1.6,1.1
			c1.5,0.6-2.5,0.4-1,1.5c-0.4,0-0.8-0.3-1.4-0.4c0.9,1.2,0.6,1,1.9,2.2l-1.1,0.3c1.2-0.1,2.2,0.8,3.1,1.6c0.5,0,1,0,1.3,0l0.5,1
			c-0.3,0-0.7-0.2-1.2-0.5c0.1,0.1,0.2,0.2,0.3,0.2c-0.6,0.1-1.4-0.3-2.1-0.7c0.3,0,0.6,0,0.9,0c-0.8-0.5-1.7-0.9-2.5-1.1
			c0.1,0.1,0.3,0.2,0.3,0.4c-0.2-0.1-0.4-0.2-0.6-0.2c-0.2,0,0.1,0.2,0.4,0.4l-1.6-0.3l0.6,0.2l-1.3,0.7c1.3,1.2,3.4,2.5,3.7,3.9
			c-1-0.6-1.8-0.6-3.2-1c1.5,0.1-0.3-1.1,0.1-1.6c-0.2,0.3-0.9,0-1.1-0.1l1,1.5c-1.1-0.4-0.9,0-1.4,0.1c2.2,0.4,1.2,1.2,1.7,1.9
			c-0.7-0.2-1.4-0.5-1.1-1c-1.8,0.1,2.3,1.5,0.8,1.7c0-0.1,0.2-0.2-0.2-0.3c0.6,0.5-0.2,1.1-0.8,0.7l0-0.1c-0.5,0.8-0.8,2.7,1,3.4
			c-0.2-0.1-2.2-0.8-2.5-0.9l5.8,3.4c-1.5-0.6-5.5-1.2-6.2-2.2c-0.3,0.1-0.6,0.3-0.2,0.9c0.3-0.1,2.4,0.3,2.5,0.5
			c-1.9,0-1.1,0.1-2.8,0.3c0.4-0.1,2.8,0.8,2.6,1.2c-0.4-0.2-2.5-0.7-2.7-0.9l2.2,1.5c-0.4-0.3-2.1-0.6-2.8-0.6c0.5,0-0.2,0.7-0.1,1
			l0.7-0.2c-0.6,0.9,3.2,1.9,2.8,2.8c-0.5-0.3-3-1.2-3.5-0.8c1.2,0.6,5.8,2.7,6.5,3.8l-0.8,0l0.6,0.9c-1.8-0.9-5.4-3.1-6.8-4.2
			c-0.7,0.2-0.9-0.1-1,0.4c-0.7,0-0.9-0.6-0.9-0.7l-0.8,1.1c1.5,0.3,1.2,1.4,2.4,1.7l-1.1-1.8c1.5,0.4,3.9,1.9,3.4,2.7
			c-0.6,0.1-2.6-0.9-3.1-1c0.5,0.3,0.7,1.1,0.3,1.1l-0.7-0.6c-0.7,0.3,1.7,1.3,0.2,1.6c-0.1,0.2-2.1,0.1-1.2,0.4
			c1.8,0.1,7,1.4,8.2,2c-0.1,0-1.9,0.6-2.8,0.7c-1.4,0-3-1.3-4.2-1.4c0.4,0.1,0.8,0.4,1,0.6c-0.4,0.1-1.2-0.4-1.2,0.1
			c1.5,0.5-0.4,0.9,1.2,0.6c0.3,0.6-0.4,0.4-0.5,1c1,0.1,3.2,1.3,3.5,1.9c-0.4-0.1-0.9-0.2-1.1-0.2c-0.4,0.9-1.2,1.2-1.4,2.1
			c-0.4,0-0.9,0.3-1.5,0c0.2,0.2,0.7,0.4,0.7,0.7c-1.4,0.2-0.1-0.7-1.7-0.6c0.9,0.3,1,1,1.5,1.5c1.4,0.2,0.5-0.8,0-1.3
			c1.9,0.5,3.6,1.6,4.3,2.7c0.3,0.8-1.3,0-1,0.2c-0.7,1.3,3,1.9,1.3,2.7c-1.3,0.2-2.4-0.5-3.2-0.6c-0.3-0.7,1-0.7,1-1.1l-0.7,0.4
			c-0.3-0.3-0.5-0.8-0.2-0.9c-1.2,0.1-0.8,2.3-2,3.1c0.4,0.3,0.7,0.7,1.2,0.7l-0.1-0.4c1-0.1,1.2,0.9,1.7,0.6
			c0.6,0.6,1.5,1.3,0.8,1.8l-1.4-0.2c0.4,0.1,0.9-0.2,0.5-0.5c0.5,0.4-2,0.5-0.3,1.2l1-0.2c0.6,0.6,1.9,1.5,1.3,1.9
			c1.4,0-0.1-0.2,1.5-0.2c-2-0.1,0.4-1.4-1.8-1.3c1.9,0,0.9-0.5,2.6-0.7c-0.4-0.1-0.9,0-0.6-0.4c-0.1-0.1-0.3-0.1-0.4-0.2
			c0,0,0,0,0,0l-0.1,0c-0.1,0-0.1,0,0,0c-0.2,0.1-0.5,0.1-0.7,0.1c-1-0.5-0.8-1.2-1.2-1.6c0.3-0.2,0.5,0.2,1,0.2l-0.7-0.6
			c1,0.2,1.8-0.3,2.2,0.4l0.2-0.6c0.6-0.2,1-0.6,0.6-1c0.3-0.2-0.9-1-0.2-0.5l-0.4-1.1l0.2,0.1c0.3-0.9-1.2-2.3,0.8-2.8
			c-0.2-0.4-0.4-0.8,0-1.2l0.9,0.1c-0.2-0.5,1.2-0.9,0.3-1.3c2.4,0.2,1-1.7,1.6-2.3l-1.1-0.3c0.2-0.5,0-1-0.3-1.7l-1-0.2
			c-0.7-0.7,1-1.1,1.2-1.9c0.4,0.2,0.2,0.3-0.1,0.4c2.5-0.3-1-2.4,0.8-2.9c-0.3-0.3-0.1-0.4,0.2-0.5c0,0,0,0,0,0.1c0,0,0-0.1,0-0.1
			c0.2,0,0.4-0.1,0.6-0.2c-0.3,0-0.5,0.1-0.6,0.1c0-0.2,0-0.5-0.2-0.8l1.1,0.2c0,0,0,0,0-0.1c0.5-0.1-0.4-0.3-1.3-0.4
			c-0.1-0.2-0.3-0.3-0.5-0.5c1.7,0.3-0.4-0.8,1.5-0.6c-0.8-0.4-0.3-1.4-2.1-2.1c0.2,0.1,0.4,0,0.4,0.2c0.3-0.2,0.6-0.4,0.1-0.8
			l1.4,0.3l-1.6-1.1c0.9-0.1,1.4-0.1,2.3,0.5c-1.3-1.3-0.4-0.9-1.7-2.1l0.8,0.3c0-0.3-1-1-0.2-1c1.8-0.1,1.1-2.9,3.1-3.9
			c-2.6-0.5,1.3-0.4-0.6-1c0.6,0.1,1,0,1.5,0.4c-0.4-1,1.3-0.9-0.2-1.9c0.6,0.1,0.8,0.4,1.2,0.5c-0.1-0.1-0.4-0.4-0.1-0.4
			c0.4,0,0.5,0.3,0.7,0.5c0.1-0.8-1.7-1.5-3.4-2c0.9-0.2,0.9-0.4-0.2-1c0.6,0,1.3,0,1.3,0.5c0.2-0.3,1.3-1.4,0-1.9
			c0.4,0,0.2-0.4,0.1-0.5c0.3-0.6,0.4-0.6,0.5-1.3l-0.3,0.1c-1.6-0.8-0.2-0.6-0.3-1.2l0.2,0.1c1.5-0.8-0.4-0.7,1.3-1.4l-1.1-0.3
			c-2.2-0.8,1.6-0.6,1-1.5l-0.7,0.1c-0.7-0.6,3.3-0.1,3.7-0.3c0.2,0,0.3,0.2,0.4,0.4c1.6-0.5-1.3-0.5-1.4-1.3
			c0.8,0.1,1.8,0.7,2.1,0.3c0.7-0.1-2-2.1-0.4-2.3c-0.6,0-1.2-0.1-1.5-0.5c-0.1-0.6,2.5-0.7,0.9-1.7c0.2,0,0.3,0,0.5,0
			c-0.3-0.5-0.4-1.5-1.3-2c3.7,0.8-1-2.9,2.3-1.9l0.2-1.2l0.3,0.1c0.4-0.7-0.3-1.2-1-1.7c0.3-0.1,0.5,0.1,0.7,0.2
			c1-0.9,0.9-1-0.5-2.4l1.1,0.2c-0.5-0.4,2.2-1.1,1.2-2.5c0.1,0,0.3,0.1,0.4,0.3c-0.9-1.6,3.8-2,0.1-3.6l-0.7-1.1
			c-0.6,0.9-1.7-0.7-2.4-0.4c-0.1-0.5,1.5-0.7,1.5-0.1l-0.2,0c2,0.8,1.1-1.1,2.5-0.6c0.5-2,2.2-3.7,2.8-5.6l-1.7-0.2l0.3-0.6
			c0.4-0.1,1.3,0.1,1.1,0.6c1,0-0.5-1-0.9-1.1c0.9-0.7,1.7,0.9,1.9,0.6l0-0.4l-0.2,0c-0.6-0.5-1.2-0.7-1-1.3c0.4-0.3,1,0.1,1.1,0
			c0.1,0,0.2,0,0.1-0.2l0.4-0.8l-1.3,0c-0.5-0.5,0.3-0.8-1.2-0.8c2.4,0.1,1.7-2.9,2.4-3c-0.8-0.8-0.6-1.3-0.3-1.9
			c-0.3,0.1-1.7-0.2-1.4-0.7c2.9,1,1.5-0.6,3.8-0.5c-1.5,0,0.1-1.7-2.1-1.6c0.4-0.4,1.1,0.3,1.9,0.1c-0.8-1.4,1.4-2.2,1.4-3.7
			c-0.4-0.1-1-0.1-1.5-0.5l2.1-0.2c-0.1-0.3-2.2-0.8-0.7-1c-0.3,0-0.9,0-0.9-0.3c2.6-2.1-0.1-5.8,4.1-7.6c-0.8,0.2-0.9-0.1-0.8-0.4
			c-0.2,0.1-1-0.2-1.5-0.3l1.7-0.8c-1.4-0.6,0.2-1.2-1.1-1.7l0.2,0.4c-1.5-0.9-3.8-0.3-5.9-0.9c1.7,1-3.1,0.7-0.7,2.2
			c-0.5,0.1-0.6-0.3-1.1-0.4c0.8,0.4,1,0.8,0.4,1.1l-0.2-0.1c-0.1,1.4-1.2,1.8-2.2,3.2l1.1,0.2c-0.2,0.3-0.6,0.3-0.9,0.4
			c1.5,0.8,0.3-0.9,2-0.1c-2.2-0.1-0.7,2.3-3.1,2c-0.2,0.5,1.2,0.2,1.1,0.7l-0.7,0l0.8,0.4c-0.2,0.3-1.1,0.2-1.6,0.1
			c0.1-0.1-0.1-0.3-0.1-0.4c-0.9,0.2-0.1,1.3-0.4,1.4l0.5-0.4c0.2,1.5-1.1,3-0.1,4.7l0.5,0c0.6,1.3-0.8,0.7-0.7,1.9l-0.1-0.1
			c0.4,0.4,0.6,0.7,0.4,1c-0.5-0.4-1.3,0.2-1.8-0.3c0.7,1.4,0.6,0.8,2.2,2l-0.9-0.1c0.7,0.5,1,0.6,1.1,1.2c-0.6-0.7-1.3,0-2.1-0.8
			c-2.1,0.7,1.3,2.3-1.4,2.1c2.1,1.2,1.5-0.7,1.9-0.2c0.8,0,1.5,0.9,1.2,1.2c-0.2,0.4-3-0.2-3.3,0.8c0-0.1-0.1-0.1-0.1-0.2
			c-0.7,0.2,0.6,0.9-0.5,1.1c1.3,0.6-0.2,0.5,1.5,1.1l-0.1-1c0.3,0.6,2.2,1.7,1,2.2c-0.3-0.2-0.7-0.5-0.9-0.8
			c-0.6,0.1,0.2,0.6-0.4,0.6c-1.7-0.6-0.1-1.2-1.2-2.1c-0.8,0,1,1.4-0.8,0.5c2.3,1.1-0.6,0.8,1,2l-1-0.3c0.1,0.1,0.6,0.5,0.5,0.7
			l-1.2-0.7c1,0.8-1.3,0.7-0.8,1.4c0.3-1,1.3,0.1,2.2-0.1c1,1.7-2.9-0.1-2.8,1.5c-0.1-0.2,0.8-0.5,1.2-0.1c-0.3,0.2-0.8,0.5-1.4,0.5
			c-0.1,1,1.1,0.2,1.6,0.8c-1.3-0.1,0.4,0.6,0.6,1.2l-1-0.3c-1,0.9,2.1,0.9,1,1.7l-1.3-0.8l0.2,0.6l-1.2-0.5
			c0.7,0.8,0.4,0.9-0.1,1.4c0.8,0.1,1.9,0.6,1.8,1.1c-0.7,0.1-0.9-0.5-1,0.2c-0.6-0.3-1.4-0.8-0.3-0.8c-0.3-0.1-0.6-0.3-0.9-0.5
			c-0.8,0.1-0.4,0.8-0.5,1.1c0.1-0.1,0.2-0.2,0.3-0.2l1.2,1.4c-0.4,0-0.7-0.2-1-0.4c0.1,0.2,0.5,0.5,0.5,0.8c-0.8-0.3-1.7-0.6-2-1.1
			l0.7,1.2c-0.4,0-1.2,0.2-1.4,0c-0.7,0.4,1.3,1.8,0.4,2.3c0.2,0.1,0.3,0.2,0.4,0.4c-0.4,0.6-1.6,0.8-0.7,2l-1.7,0
			c0.2,0.7,2.1,0,2.4,1.2c0.3,0.9-1.4-0.1-1.9,0c0.7,0.6,2,1.7,0.6,1.9C243,296.8,243.3,296.7,243.2,296.5z M241.6,304.1
			c-0.2-0.2-0.8-0.7-0.1-0.6C242.6,304,242,304,241.6,304.1z M240.7,316.2c-0.3-0.2-0.1-0.3,0.4-0.4
			C241.1,315.9,241,316.1,240.7,316.2z M239.3,349.7C239.3,349.7,239.3,349.7,239.3,349.7C239.7,349.5,239.5,349.6,239.3,349.7z
			 M238.7,350.3c0.1,0.1,0.3,0.1,0.4,0.1c-0.3-0.1-0.2-0.3-0.1-0.4C238.7,350,238.5,350,238.7,350.3z M259,278.6l-0.3,0.1
			C258.5,278.2,258.8,278.4,259,278.6z"/>
		<path class="st14" d="M239.6,314.4c0.2,0,0.4,0.1,0.6,0.1C240.1,314.4,239.9,314.4,239.6,314.4z"/>
		<path class="st14" d="M244.1,291.7C244.1,291.7,244.1,291.7,244.1,291.7c0-0.1-0.1-0.1-0.2-0.1L244.1,291.7z"/>
		<path class="st14" d="M232.3,337.6c0.2-0.1,0.4-0.1,0.6-0.1C232.7,337.4,232.5,337.4,232.3,337.6z"/>
		<path class="st14" d="M239.7,354.2l-0.2-0.5c0,0.2-0.2,0.2-0.4,0.3C239.3,354.1,239.7,354.1,239.7,354.2z"/>
		<path class="st14" d="M232.2,356.5c0.1,0.1,0,0.1,0.1,0.2l0.5,0.1C232.9,356.6,232.5,356.3,232.2,356.5z"/>
		<path class="st14" d="M236,353.8c-0.9-0.2-0.7,0.2-0.6,0.5c0,0,0,0,0-0.1C236.7,354.7,236.4,354.3,236,353.8z"/>
		<path class="st14" d="M235.5,354.4c0,0.1,0,0.2,0,0.3C235.9,354.9,235.6,354.6,235.5,354.4z"/>
		<path class="st14" d="M239.1,351.3c-0.3,0.1,1.1,0.4,0.7,0.4C240.9,352.1,238.6,350.4,239.1,351.3z"/>
		<polygon class="st14" points="233,353.4 234.2,353.6 233.3,353.2 		"/>
		<path class="st14" d="M234.4,351.2l-0.4,0.4c0.2,0,0.3,0.1,0.3,0.2C234.4,351.6,234.7,351.3,234.4,351.2z"/>
		<path class="st14" d="M234.3,351.8c-0.1,0.2-0.1,0.3,0.1,0.4C234.4,352.2,234.4,352,234.3,351.8z"/>
		<polygon class="st14" points="232.8,352.7 233.1,352.6 233.3,352.3 		"/>
		<path class="st14" d="M235.8,346.1l-0.2-0.6c-0.4-0.1-0.6-0.1-0.5,0.2C235.4,345.8,235.5,346,235.8,346.1z"/>
		<path class="st14" d="M232.4,346.9c0.3-0.1,0.5,0,0.9,0l-1.4-0.3L232.4,346.9z"/>
		<path class="st14" d="M232.5,345.3c-0.4-0.1-0.9-1-1-0.3C231.9,345.1,232.1,345.7,232.5,345.3z"/>
		<polygon class="st14" points="236.3,337.7 236.3,337.9 238.5,338.5 		"/>
		<path class="st14" d="M232.9,329.3c-0.7,0.5,1.3,0.5,0.5,0.9c0.5,0.3,0.7-0.3,1.1,0C234,329.6,234.4,329.5,232.9,329.3z"/>
		<path class="st14" d="M234.5,330.1c0.1,0.1,0.2,0.2,0.3,0.3C234.6,330.3,234.6,330.2,234.5,330.1z"/>
		<polygon class="st14" points="266.8,254.2 267.4,253.9 266.6,254 		"/>
		<path class="st14" d="M265.4,253l1.4,0.3l-1.2-0.6C265.6,252.8,265.7,253,265.4,253z"/>
		<path class="st14" d="M238.4,304.3l0.3,0.1c0.4,0.1,0.4,0,0.6-0.2L238.4,304.3z"/>
		<polygon class="st14" points="241.2,299.3 241.1,299.3 242.4,299.6 		"/>
		<path class="st14" d="M240.9,294.3c-0.1,0.2,0.1,0.5,0,0.6C240.8,294.4,242.5,294.7,240.9,294.3z"/>
	</g>
</g>
</svg>
