<svg xmlns:xlink="http://www.w3.org/1999/xlink" xmlns="http://www.w3.org/2000/svg" viewBox="0 0 647.9 102.16" width="647.9"  height="102.16" ><defs><style>.cls-1{fill:#071f3f}</style></defs><g id="Layer_2" data-name="Layer 2"><g id="Layer_1-2" data-name="Layer 1"><path class="cls-1" d="M71.89 78.89L50.44 44.54a.48.48 0 00-.81 0L28.18 78.89a.32.32 0 00.27.49h43.17a.32.32 0 00.27-.49z" fill="#071F3F"></path><circle cx="14.26" cy="28.25" r="14.16" fill="#FA9377"></circle><circle cx="76.86" cy="8.94" r="8.94" fill="#43BCA0"></circle><path class="cls-1" d="M1.07 57.76l-.94-2.07a1.49 1.49 0 01.81-2l96.17-38.22a1.48 1.48 0 011.89.77l.94 2.07a1.47 1.47 0 01-.8 2L3 58.53a1.49 1.49 0 01-1.93-.77zm157.21-34.14a25 25 0 00-18.15 7.12v-5.43h-11.66v75.37h11.66V73.84c4.65 4.61 10.85 7 18.15 7 15.83 0 27.33-12 27.33-28.52s-11.5-28.7-27.33-28.7zm15.47 28.72c0 10.56-6.82 17.65-17 17.65-10 0-17-7.26-17-17.65s7.13-17.85 17-17.85c10.18 0 17 7.17 17 17.85zm74.72-27.03h-11.66v5.4a25.23 25.23 0 00-18.15-7.09c-15.84 0-27.33 12.08-27.33 28.72s11.49 28.52 27.33 28.52c7.91 0 14.5-2.82 19.22-8.18l1.69 6.69h10.56l-1.66-12.75zm-11.36 27c0 10.39-7 17.65-17 17.65-10.15 0-17-7.09-17-17.65s6.81-17.85 17-17.85c9.89.03 17 7.54 17 17.88zm61.64-27l-15.32 37.87-15.97-37.87h-12.99l22.65 52.11-9.74 23.26h12.56l31.59-75.37h-12.78zm140.91-1.69c-16.64 0-28.72 12-28.72 28.62S423 80.86 439.66 80.86s28.91-12 28.91-28.62-12.16-28.62-28.91-28.62zm17 28.62c0 10.56-6.82 17.66-17 17.66s-16.86-7.1-16.86-17.66 6.77-17.65 16.86-17.65 16.96 7.09 16.96 17.65zm189.57 14.38v-63h-11.66v27.09a25.22 25.22 0 00-18.15-7.09c-15.83 0-27.33 12.08-27.33 28.72s11.5 28.52 27.33 28.52c7.91 0 14.5-2.82 19.22-8.18l1.69 6.69h10.57zm-11.36-14.28c0 10.39-7 17.65-17 17.65s-17-7.09-17-17.65 6.82-17.85 17-17.85c9.87 0 17 7.51 17 17.85zm-73.7-28.62c-7.43 0-12.95 2.47-16.81 7.6l-1.52-6h-10.78l1.66 12.75v41.31h11.68v-29c0-10 5-15.77 13.69-15.77 7.61 0 11.31 4.28 11.31 13.09v31.67h11.66V46.3c0-14.14-7.81-22.58-20.89-22.58zm-38.65 1.59h-11.66v29.41c0 10-4.81 15.67-13.2 15.67-7.27 0-10.81-4-10.81-12.1v-33h-11.66v34.28c0 13.13 7.85 21.29 20.49 21.29 7.07 0 12.54-2.46 16.25-7.26l1.5 5.92h10.77l-1.66-12.75zM409 24.74a16.12 16.12 0 00-3.95-.42 20 20 0 00-12.82 4.55c-2.48 2.2-2.95 3.72-2.95 3.72l-.56-2.24-1.28-5.06h-10.77l1.66 12.75v41.33H390V53.13C390 41.75 394.72 36 404.07 36a17.49 17.49 0 014.35.56l1.58.4V25zm-50.83.57l-.59 2.35-.92 3.7s-.45-.45-2.26-2.11a24.52 24.52 0 00-15.94-5.64c-15.6 0-26.93 11.58-26.93 27.53s11.33 27.43 26.93 27.43a24.55 24.55 0 0017.16-6.64v4.38c0 9.48-6.27 15.37-16.36 15.37-8.8 0-14.3-3.85-16.82-11.79l-.52-1.62-10.18 6.87.37.95c4.18 10.66 13.32 16.06 27.15 16.06 17 0 28-10 28-25.35V38.06L369 25.31zM340 67.72c-9.91 0-16.56-6.66-16.56-16.57S330 34.49 340 34.49c9.55 0 16 6.69 16 16.66s-6.5 16.57-16 16.57z" fill="#071F3F"></path></g></g></svg>